G04 EAGLE Gerber X2 export*
%TF.Part,Single*%
%TF.FileFunction,Copper,L2,Bot,Mixed*%
%TF.FilePolarity,Positive*%
%TF.GenerationSoftware,Autodesk,EAGLE,9.0.1*%
%TF.CreationDate,2018-06-12T17:55:40Z*%
G75*
%MOMM*%
%FSLAX34Y34*%
%LPD*%
%AMOC8*
5,1,8,0,0,1.08239X$1,22.5*%
G01*
%ADD10C,1.676400*%
%ADD11C,1.270000*%
%ADD12P,1.429621X8X292.500000*%
%ADD13P,1.429621X8X112.500000*%
%ADD14C,1.422400*%
%ADD15C,0.254000*%


D10*
X215900Y355600D03*
X114300Y355600D03*
X215900Y127000D03*
X114300Y127000D03*
D11*
X139700Y305054D03*
X139700Y254254D03*
X139700Y228854D03*
X139700Y203454D03*
X139700Y178054D03*
X190500Y178054D03*
X190500Y203454D03*
X190500Y228854D03*
X190500Y254254D03*
X190500Y305054D03*
D12*
X254000Y279400D03*
X273050Y292100D03*
X254000Y304800D03*
X254000Y177800D03*
X273050Y190500D03*
X254000Y203200D03*
D13*
X317500Y139700D03*
X317500Y215900D03*
D12*
X317500Y355600D03*
X317500Y279400D03*
D14*
X57912Y266700D02*
X43688Y266700D01*
X43688Y241300D02*
X57912Y241300D01*
X373888Y177800D02*
X388112Y177800D01*
X388112Y203200D02*
X373888Y203200D01*
X373888Y254000D02*
X388112Y254000D01*
X388112Y279400D02*
X373888Y279400D01*
X373888Y304800D02*
X388112Y304800D01*
D15*
X215646Y266700D02*
X50800Y266700D01*
X215646Y266700D02*
X253746Y304800D01*
X254000Y304800D01*
X381000Y203454D02*
X381000Y203200D01*
X228854Y203454D02*
X190500Y203454D01*
X228854Y203454D02*
X241300Y215900D01*
X279400Y215900D01*
X292100Y203200D01*
X381000Y203200D01*
M02*
