M48
;GenerationSoftware,Autodesk,EAGLE,9.0.1*%
;CreationDate,2018-06-12T17:55:40Z*%
FMAT,2
ICI,OFF
METRIC,TZ,000.000
T4C0.762
T3C0.813
T2C0.914
T1C1.118
%
G90
M71
T1
X21590Y35560
X11430Y35560
X21590Y12700
X11430Y12700
T2
X5080Y26670
X5080Y24130
X38100Y17780
X38100Y20320
X38100Y25400
X38100Y27940
X38100Y30480
T3
X25400Y27940
X27305Y29210
X25400Y30480
X25400Y17780
X27305Y19050
X25400Y20320
X31750Y13970
X31750Y21590
X31750Y35560
X31750Y27940
T4
X13970Y30505
X13970Y25425
X13970Y22885
X13970Y20345
X13970Y17805
X19050Y17805
X19050Y20345
X19050Y22885
X19050Y25425
X19050Y30505
M30