G04 EAGLE Gerber X2 export*
%TF.Part,Single*%
%TF.FileFunction,Legend,Top,1*%
%TF.FilePolarity,Positive*%
%TF.GenerationSoftware,Autodesk,EAGLE,9.0.1*%
%TF.CreationDate,2018-06-12T17:55:40Z*%
G75*
%MOMM*%
%FSLAX34Y34*%
%LPD*%
%AMOC8*
5,1,8,0,0,1.08239X$1,22.5*%
G01*
%ADD10C,0.152400*%
%ADD11C,0.127000*%
%ADD12R,0.508000X2.540000*%
%ADD13R,1.905000X0.762000*%
%ADD14C,0.076200*%
%ADD15C,0.015238*%


D10*
X185420Y342900D02*
X144780Y342900D01*
X185420Y342900D02*
X185420Y368300D01*
X144780Y368300D01*
X144780Y342900D01*
X158750Y355600D02*
X165100Y355600D01*
X175260Y361950D02*
X175260Y349250D01*
X165100Y355600D01*
X180340Y355600D01*
X175260Y361950D02*
X165100Y355600D01*
X165100Y361950D01*
X165100Y355600D02*
X165100Y349250D01*
D11*
X145415Y372745D02*
X145415Y384175D01*
X148590Y384175D01*
X148701Y384173D01*
X148811Y384167D01*
X148922Y384158D01*
X149032Y384144D01*
X149141Y384127D01*
X149250Y384106D01*
X149358Y384081D01*
X149465Y384052D01*
X149571Y384020D01*
X149676Y383984D01*
X149779Y383944D01*
X149881Y383901D01*
X149982Y383854D01*
X150081Y383803D01*
X150178Y383750D01*
X150272Y383693D01*
X150365Y383632D01*
X150456Y383569D01*
X150545Y383502D01*
X150631Y383432D01*
X150714Y383359D01*
X150796Y383284D01*
X150874Y383206D01*
X150949Y383124D01*
X151022Y383041D01*
X151092Y382955D01*
X151159Y382866D01*
X151222Y382775D01*
X151283Y382682D01*
X151340Y382588D01*
X151393Y382491D01*
X151444Y382392D01*
X151491Y382291D01*
X151534Y382189D01*
X151574Y382086D01*
X151610Y381981D01*
X151642Y381875D01*
X151671Y381768D01*
X151696Y381660D01*
X151717Y381551D01*
X151734Y381442D01*
X151748Y381332D01*
X151757Y381221D01*
X151763Y381111D01*
X151765Y381000D01*
X151765Y375920D01*
X151763Y375809D01*
X151757Y375699D01*
X151748Y375588D01*
X151734Y375478D01*
X151717Y375369D01*
X151696Y375260D01*
X151671Y375152D01*
X151642Y375045D01*
X151610Y374939D01*
X151574Y374834D01*
X151534Y374731D01*
X151491Y374629D01*
X151444Y374528D01*
X151393Y374429D01*
X151340Y374332D01*
X151283Y374238D01*
X151222Y374145D01*
X151159Y374054D01*
X151092Y373965D01*
X151022Y373879D01*
X150949Y373796D01*
X150874Y373714D01*
X150796Y373636D01*
X150714Y373561D01*
X150631Y373488D01*
X150545Y373418D01*
X150456Y373351D01*
X150365Y373288D01*
X150272Y373227D01*
X150177Y373170D01*
X150081Y373117D01*
X149982Y373066D01*
X149881Y373019D01*
X149779Y372976D01*
X149676Y372936D01*
X149571Y372900D01*
X149465Y372868D01*
X149358Y372839D01*
X149250Y372814D01*
X149141Y372793D01*
X149032Y372776D01*
X148922Y372762D01*
X148811Y372753D01*
X148701Y372747D01*
X148590Y372745D01*
X145415Y372745D01*
X157226Y381635D02*
X160401Y384175D01*
X160401Y372745D01*
X157226Y372745D02*
X163576Y372745D01*
D12*
X151130Y355600D03*
D13*
X194945Y355600D03*
X135255Y355600D03*
D10*
X144780Y114300D02*
X185420Y114300D01*
X185420Y139700D01*
X144780Y139700D01*
X144780Y114300D01*
X158750Y127000D02*
X165100Y127000D01*
X175260Y133350D02*
X175260Y120650D01*
X165100Y127000D01*
X180340Y127000D01*
X175260Y133350D02*
X165100Y127000D01*
X165100Y133350D01*
X165100Y127000D02*
X165100Y120650D01*
D11*
X145415Y144145D02*
X145415Y155575D01*
X148590Y155575D01*
X148701Y155573D01*
X148811Y155567D01*
X148922Y155558D01*
X149032Y155544D01*
X149141Y155527D01*
X149250Y155506D01*
X149358Y155481D01*
X149465Y155452D01*
X149571Y155420D01*
X149676Y155384D01*
X149779Y155344D01*
X149881Y155301D01*
X149982Y155254D01*
X150081Y155203D01*
X150178Y155150D01*
X150272Y155093D01*
X150365Y155032D01*
X150456Y154969D01*
X150545Y154902D01*
X150631Y154832D01*
X150714Y154759D01*
X150796Y154684D01*
X150874Y154606D01*
X150949Y154524D01*
X151022Y154441D01*
X151092Y154355D01*
X151159Y154266D01*
X151222Y154175D01*
X151283Y154082D01*
X151340Y153988D01*
X151393Y153891D01*
X151444Y153792D01*
X151491Y153691D01*
X151534Y153589D01*
X151574Y153486D01*
X151610Y153381D01*
X151642Y153275D01*
X151671Y153168D01*
X151696Y153060D01*
X151717Y152951D01*
X151734Y152842D01*
X151748Y152732D01*
X151757Y152621D01*
X151763Y152511D01*
X151765Y152400D01*
X151765Y147320D01*
X151763Y147209D01*
X151757Y147099D01*
X151748Y146988D01*
X151734Y146878D01*
X151717Y146769D01*
X151696Y146660D01*
X151671Y146552D01*
X151642Y146445D01*
X151610Y146339D01*
X151574Y146234D01*
X151534Y146131D01*
X151491Y146029D01*
X151444Y145928D01*
X151393Y145829D01*
X151340Y145732D01*
X151283Y145638D01*
X151222Y145545D01*
X151159Y145454D01*
X151092Y145365D01*
X151022Y145279D01*
X150949Y145196D01*
X150874Y145114D01*
X150796Y145036D01*
X150714Y144961D01*
X150631Y144888D01*
X150545Y144818D01*
X150456Y144751D01*
X150365Y144688D01*
X150272Y144627D01*
X150177Y144570D01*
X150081Y144517D01*
X149982Y144466D01*
X149881Y144419D01*
X149779Y144376D01*
X149676Y144336D01*
X149571Y144300D01*
X149465Y144268D01*
X149358Y144239D01*
X149250Y144214D01*
X149141Y144193D01*
X149032Y144176D01*
X148922Y144162D01*
X148811Y144153D01*
X148701Y144147D01*
X148590Y144145D01*
X145415Y144145D01*
X160719Y155576D02*
X160823Y155574D01*
X160928Y155568D01*
X161032Y155559D01*
X161135Y155546D01*
X161238Y155528D01*
X161340Y155508D01*
X161442Y155483D01*
X161542Y155455D01*
X161642Y155423D01*
X161740Y155387D01*
X161837Y155348D01*
X161932Y155306D01*
X162026Y155260D01*
X162118Y155210D01*
X162208Y155158D01*
X162296Y155102D01*
X162382Y155042D01*
X162466Y154980D01*
X162547Y154915D01*
X162626Y154847D01*
X162703Y154775D01*
X162776Y154702D01*
X162848Y154625D01*
X162916Y154546D01*
X162981Y154465D01*
X163043Y154381D01*
X163103Y154295D01*
X163159Y154207D01*
X163211Y154117D01*
X163261Y154025D01*
X163307Y153931D01*
X163349Y153836D01*
X163388Y153739D01*
X163424Y153641D01*
X163456Y153541D01*
X163484Y153441D01*
X163509Y153339D01*
X163529Y153237D01*
X163547Y153134D01*
X163560Y153031D01*
X163569Y152927D01*
X163575Y152822D01*
X163577Y152718D01*
X160719Y155575D02*
X160601Y155573D01*
X160482Y155567D01*
X160364Y155558D01*
X160247Y155545D01*
X160130Y155527D01*
X160013Y155507D01*
X159897Y155482D01*
X159782Y155454D01*
X159669Y155421D01*
X159556Y155386D01*
X159444Y155346D01*
X159334Y155304D01*
X159225Y155257D01*
X159117Y155207D01*
X159012Y155154D01*
X158908Y155097D01*
X158806Y155037D01*
X158706Y154974D01*
X158608Y154907D01*
X158512Y154838D01*
X158419Y154765D01*
X158328Y154689D01*
X158239Y154611D01*
X158153Y154529D01*
X158070Y154445D01*
X157989Y154359D01*
X157912Y154269D01*
X157837Y154178D01*
X157765Y154084D01*
X157696Y153987D01*
X157631Y153889D01*
X157568Y153788D01*
X157509Y153685D01*
X157453Y153581D01*
X157401Y153475D01*
X157352Y153367D01*
X157307Y153258D01*
X157265Y153147D01*
X157227Y153035D01*
X162624Y150496D02*
X162700Y150571D01*
X162775Y150650D01*
X162846Y150731D01*
X162915Y150815D01*
X162980Y150901D01*
X163042Y150989D01*
X163102Y151079D01*
X163158Y151171D01*
X163211Y151266D01*
X163260Y151362D01*
X163306Y151460D01*
X163349Y151559D01*
X163388Y151660D01*
X163423Y151762D01*
X163455Y151865D01*
X163483Y151969D01*
X163508Y152074D01*
X163529Y152181D01*
X163546Y152287D01*
X163559Y152394D01*
X163568Y152502D01*
X163574Y152610D01*
X163576Y152718D01*
X162624Y150495D02*
X157226Y144145D01*
X163576Y144145D01*
D12*
X151130Y127000D03*
D13*
X194945Y127000D03*
X135255Y127000D03*
D10*
X126492Y165100D02*
X203708Y165100D01*
X203708Y317754D01*
X126492Y317754D01*
X126492Y165100D01*
D14*
X132715Y277001D02*
X132715Y282307D01*
X132717Y282421D01*
X132723Y282536D01*
X132733Y282650D01*
X132747Y282763D01*
X132764Y282877D01*
X132786Y282989D01*
X132811Y283101D01*
X132841Y283211D01*
X132874Y283321D01*
X132911Y283429D01*
X132951Y283536D01*
X132996Y283642D01*
X133043Y283746D01*
X133095Y283848D01*
X133150Y283948D01*
X133208Y284047D01*
X133270Y284143D01*
X133335Y284238D01*
X133403Y284329D01*
X133475Y284419D01*
X133549Y284506D01*
X133626Y284590D01*
X133707Y284672D01*
X133790Y284751D01*
X133875Y284827D01*
X133964Y284900D01*
X134054Y284969D01*
X134147Y285036D01*
X134243Y285099D01*
X134340Y285159D01*
X134440Y285216D01*
X134541Y285269D01*
X134644Y285319D01*
X134749Y285365D01*
X134855Y285408D01*
X134963Y285446D01*
X135072Y285481D01*
X135182Y285512D01*
X135293Y285540D01*
X135405Y285563D01*
X135518Y285583D01*
X135631Y285599D01*
X135745Y285611D01*
X135859Y285619D01*
X135974Y285623D01*
X136088Y285623D01*
X136203Y285619D01*
X136317Y285611D01*
X136431Y285599D01*
X136544Y285583D01*
X136657Y285563D01*
X136769Y285540D01*
X136880Y285512D01*
X136990Y285481D01*
X137099Y285446D01*
X137207Y285408D01*
X137313Y285365D01*
X137418Y285319D01*
X137521Y285269D01*
X137622Y285216D01*
X137722Y285159D01*
X137819Y285099D01*
X137915Y285036D01*
X138008Y284969D01*
X138098Y284900D01*
X138187Y284827D01*
X138272Y284751D01*
X138355Y284672D01*
X138436Y284590D01*
X138513Y284506D01*
X138587Y284419D01*
X138659Y284329D01*
X138727Y284238D01*
X138792Y284143D01*
X138854Y284047D01*
X138912Y283948D01*
X138967Y283848D01*
X139019Y283746D01*
X139066Y283642D01*
X139111Y283536D01*
X139151Y283429D01*
X139188Y283321D01*
X139221Y283211D01*
X139251Y283101D01*
X139276Y282989D01*
X139298Y282877D01*
X139315Y282763D01*
X139329Y282650D01*
X139339Y282536D01*
X139345Y282421D01*
X139347Y282307D01*
X139347Y277001D01*
X139345Y276887D01*
X139339Y276772D01*
X139329Y276658D01*
X139315Y276545D01*
X139298Y276431D01*
X139276Y276319D01*
X139251Y276207D01*
X139221Y276097D01*
X139188Y275987D01*
X139151Y275879D01*
X139111Y275772D01*
X139066Y275666D01*
X139019Y275562D01*
X138967Y275460D01*
X138912Y275360D01*
X138854Y275261D01*
X138792Y275165D01*
X138727Y275070D01*
X138659Y274979D01*
X138587Y274889D01*
X138513Y274802D01*
X138436Y274718D01*
X138355Y274636D01*
X138272Y274557D01*
X138187Y274481D01*
X138098Y274408D01*
X138008Y274339D01*
X137915Y274272D01*
X137819Y274209D01*
X137722Y274149D01*
X137622Y274092D01*
X137521Y274039D01*
X137418Y273989D01*
X137313Y273943D01*
X137207Y273900D01*
X137099Y273862D01*
X136990Y273827D01*
X136880Y273796D01*
X136769Y273768D01*
X136657Y273745D01*
X136544Y273725D01*
X136431Y273709D01*
X136317Y273697D01*
X136203Y273689D01*
X136088Y273685D01*
X135974Y273685D01*
X135859Y273689D01*
X135745Y273697D01*
X135631Y273709D01*
X135518Y273725D01*
X135405Y273745D01*
X135293Y273768D01*
X135182Y273796D01*
X135072Y273827D01*
X134963Y273862D01*
X134855Y273900D01*
X134749Y273943D01*
X134644Y273989D01*
X134541Y274039D01*
X134440Y274092D01*
X134340Y274149D01*
X134243Y274209D01*
X134147Y274272D01*
X134054Y274339D01*
X133964Y274408D01*
X133875Y274481D01*
X133790Y274557D01*
X133707Y274636D01*
X133626Y274718D01*
X133549Y274802D01*
X133475Y274889D01*
X133403Y274979D01*
X133335Y275070D01*
X133270Y275165D01*
X133208Y275261D01*
X133150Y275360D01*
X133095Y275460D01*
X133043Y275562D01*
X132996Y275666D01*
X132951Y275772D01*
X132911Y275879D01*
X132874Y275987D01*
X132841Y276097D01*
X132811Y276207D01*
X132786Y276319D01*
X132764Y276431D01*
X132747Y276545D01*
X132733Y276658D01*
X132723Y276772D01*
X132717Y276887D01*
X132715Y277001D01*
X144674Y273685D02*
X144674Y285623D01*
X147990Y285623D01*
X148104Y285621D01*
X148219Y285615D01*
X148333Y285605D01*
X148446Y285591D01*
X148560Y285574D01*
X148672Y285552D01*
X148784Y285527D01*
X148894Y285497D01*
X149004Y285464D01*
X149112Y285427D01*
X149219Y285387D01*
X149325Y285342D01*
X149429Y285295D01*
X149531Y285243D01*
X149631Y285188D01*
X149730Y285130D01*
X149826Y285068D01*
X149921Y285003D01*
X150012Y284935D01*
X150102Y284863D01*
X150189Y284789D01*
X150273Y284712D01*
X150355Y284631D01*
X150434Y284548D01*
X150510Y284463D01*
X150583Y284374D01*
X150652Y284284D01*
X150719Y284191D01*
X150782Y284095D01*
X150842Y283998D01*
X150899Y283898D01*
X150952Y283797D01*
X151002Y283694D01*
X151048Y283589D01*
X151091Y283483D01*
X151129Y283375D01*
X151164Y283266D01*
X151195Y283156D01*
X151223Y283045D01*
X151246Y282933D01*
X151266Y282820D01*
X151282Y282707D01*
X151294Y282593D01*
X151302Y282479D01*
X151306Y282364D01*
X151306Y282250D01*
X151302Y282135D01*
X151294Y282021D01*
X151282Y281907D01*
X151266Y281794D01*
X151246Y281681D01*
X151223Y281569D01*
X151195Y281458D01*
X151164Y281348D01*
X151129Y281239D01*
X151091Y281131D01*
X151048Y281025D01*
X151002Y280920D01*
X150952Y280817D01*
X150899Y280716D01*
X150842Y280616D01*
X150782Y280519D01*
X150719Y280423D01*
X150652Y280330D01*
X150583Y280240D01*
X150510Y280151D01*
X150434Y280066D01*
X150355Y279983D01*
X150273Y279902D01*
X150189Y279825D01*
X150102Y279751D01*
X150012Y279679D01*
X149921Y279611D01*
X149826Y279546D01*
X149730Y279484D01*
X149631Y279426D01*
X149531Y279371D01*
X149429Y279319D01*
X149325Y279272D01*
X149219Y279227D01*
X149112Y279187D01*
X149004Y279150D01*
X148894Y279117D01*
X148784Y279087D01*
X148672Y279062D01*
X148560Y279040D01*
X148446Y279023D01*
X148333Y279009D01*
X148219Y278999D01*
X148104Y278993D01*
X147990Y278991D01*
X144674Y278991D01*
X158199Y273685D02*
X160852Y273685D01*
X158199Y273685D02*
X158097Y273687D01*
X157996Y273693D01*
X157895Y273703D01*
X157794Y273716D01*
X157694Y273734D01*
X157595Y273755D01*
X157496Y273780D01*
X157399Y273809D01*
X157302Y273841D01*
X157207Y273877D01*
X157114Y273917D01*
X157022Y273960D01*
X156932Y274007D01*
X156843Y274058D01*
X156757Y274111D01*
X156673Y274168D01*
X156591Y274228D01*
X156511Y274291D01*
X156434Y274357D01*
X156359Y274426D01*
X156287Y274498D01*
X156218Y274573D01*
X156152Y274650D01*
X156089Y274730D01*
X156029Y274812D01*
X155972Y274896D01*
X155919Y274982D01*
X155868Y275071D01*
X155821Y275161D01*
X155778Y275253D01*
X155738Y275346D01*
X155702Y275441D01*
X155670Y275538D01*
X155641Y275635D01*
X155616Y275734D01*
X155595Y275833D01*
X155577Y275933D01*
X155564Y276034D01*
X155554Y276135D01*
X155548Y276236D01*
X155546Y276338D01*
X155546Y282970D01*
X155548Y283072D01*
X155554Y283173D01*
X155564Y283274D01*
X155577Y283375D01*
X155595Y283475D01*
X155616Y283574D01*
X155641Y283673D01*
X155670Y283770D01*
X155702Y283867D01*
X155738Y283962D01*
X155778Y284055D01*
X155821Y284147D01*
X155868Y284237D01*
X155919Y284326D01*
X155972Y284412D01*
X156029Y284496D01*
X156089Y284578D01*
X156152Y284658D01*
X156218Y284735D01*
X156287Y284810D01*
X156359Y284882D01*
X156434Y284951D01*
X156511Y285017D01*
X156591Y285080D01*
X156673Y285140D01*
X156757Y285197D01*
X156843Y285250D01*
X156932Y285301D01*
X157022Y285348D01*
X157114Y285391D01*
X157207Y285431D01*
X157302Y285467D01*
X157399Y285499D01*
X157496Y285528D01*
X157594Y285553D01*
X157694Y285574D01*
X157794Y285592D01*
X157895Y285605D01*
X157996Y285615D01*
X158097Y285621D01*
X158199Y285623D01*
X160852Y285623D01*
X164620Y272359D02*
X169926Y272359D01*
X174689Y273685D02*
X174689Y285623D01*
X178005Y285623D01*
X178119Y285621D01*
X178234Y285615D01*
X178348Y285605D01*
X178461Y285591D01*
X178575Y285574D01*
X178687Y285552D01*
X178799Y285527D01*
X178909Y285497D01*
X179019Y285464D01*
X179127Y285427D01*
X179234Y285387D01*
X179340Y285342D01*
X179444Y285295D01*
X179546Y285243D01*
X179646Y285188D01*
X179745Y285130D01*
X179841Y285068D01*
X179936Y285003D01*
X180027Y284935D01*
X180117Y284863D01*
X180204Y284789D01*
X180288Y284712D01*
X180370Y284631D01*
X180449Y284548D01*
X180525Y284463D01*
X180598Y284374D01*
X180667Y284284D01*
X180734Y284191D01*
X180797Y284095D01*
X180857Y283998D01*
X180914Y283898D01*
X180967Y283797D01*
X181017Y283694D01*
X181063Y283589D01*
X181106Y283483D01*
X181144Y283375D01*
X181179Y283266D01*
X181210Y283156D01*
X181238Y283045D01*
X181261Y282933D01*
X181281Y282820D01*
X181297Y282707D01*
X181309Y282593D01*
X181317Y282479D01*
X181321Y282364D01*
X181321Y282250D01*
X181317Y282135D01*
X181309Y282021D01*
X181297Y281907D01*
X181281Y281794D01*
X181261Y281681D01*
X181238Y281569D01*
X181210Y281458D01*
X181179Y281348D01*
X181144Y281239D01*
X181106Y281131D01*
X181063Y281025D01*
X181017Y280920D01*
X180967Y280817D01*
X180914Y280716D01*
X180857Y280616D01*
X180797Y280519D01*
X180734Y280423D01*
X180667Y280330D01*
X180598Y280240D01*
X180525Y280151D01*
X180449Y280066D01*
X180370Y279983D01*
X180288Y279902D01*
X180204Y279825D01*
X180117Y279751D01*
X180027Y279679D01*
X179936Y279611D01*
X179841Y279546D01*
X179745Y279484D01*
X179646Y279426D01*
X179546Y279371D01*
X179444Y279319D01*
X179340Y279272D01*
X179234Y279227D01*
X179127Y279187D01*
X179019Y279150D01*
X178909Y279117D01*
X178799Y279087D01*
X178687Y279062D01*
X178575Y279040D01*
X178461Y279023D01*
X178348Y279009D01*
X178234Y278999D01*
X178119Y278993D01*
X178005Y278991D01*
X174689Y278991D01*
X178669Y278991D02*
X181322Y273685D01*
X186456Y273685D02*
X191761Y273685D01*
X186456Y273685D02*
X186456Y285623D01*
X191761Y285623D01*
X190435Y280317D02*
X186456Y280317D01*
X196362Y285623D02*
X196362Y273685D01*
X201667Y273685D01*
X205204Y273685D02*
X209183Y285623D01*
X213162Y273685D01*
X212167Y276670D02*
X206198Y276670D01*
X216634Y285623D02*
X220613Y279986D01*
X224592Y285623D01*
X220613Y279986D02*
X220613Y273685D01*
D15*
X280117Y300237D02*
X278806Y299833D01*
X278807Y299833D02*
X278610Y300438D01*
X278399Y301038D01*
X278173Y301632D01*
X277932Y302220D01*
X277677Y302803D01*
X277408Y303379D01*
X277125Y303949D01*
X276828Y304511D01*
X276518Y305066D01*
X276194Y305613D01*
X275857Y306152D01*
X275506Y306682D01*
X275143Y307204D01*
X274767Y307717D01*
X274379Y308221D01*
X273978Y308714D01*
X273566Y309198D01*
X273142Y309672D01*
X272706Y310135D01*
X272259Y310587D01*
X271801Y311028D01*
X271333Y311458D01*
X270854Y311877D01*
X270365Y312283D01*
X269866Y312677D01*
X269358Y313060D01*
X268840Y313429D01*
X268314Y313786D01*
X267779Y314130D01*
X267236Y314460D01*
X266685Y314777D01*
X266126Y315081D01*
X265560Y315371D01*
X264988Y315647D01*
X264408Y315908D01*
X263822Y316156D01*
X263231Y316389D01*
X262634Y316608D01*
X262032Y316812D01*
X261425Y317001D01*
X260813Y317175D01*
X260197Y317334D01*
X259578Y317478D01*
X258955Y317607D01*
X258330Y317721D01*
X257702Y317819D01*
X257071Y317902D01*
X256439Y317969D01*
X255805Y318021D01*
X255171Y318058D01*
X254535Y318078D01*
X253899Y318084D01*
X253263Y318074D01*
X252628Y318048D01*
X251994Y318006D01*
X251360Y317950D01*
X250729Y317877D01*
X250099Y317789D01*
X249472Y317686D01*
X248847Y317568D01*
X248225Y317434D01*
X247607Y317285D01*
X246993Y317121D01*
X246383Y316942D01*
X245777Y316749D01*
X245176Y316540D01*
X244581Y316317D01*
X243991Y316079D01*
X243408Y315827D01*
X242830Y315561D01*
X242259Y315280D01*
X241696Y314986D01*
X241140Y314678D01*
X240591Y314357D01*
X240050Y314022D01*
X239518Y313674D01*
X238995Y313313D01*
X238480Y312940D01*
X237975Y312554D01*
X237126Y313631D01*
X237125Y313631D01*
X237657Y314038D01*
X238199Y314431D01*
X238750Y314811D01*
X239311Y315178D01*
X239880Y315530D01*
X240458Y315869D01*
X241043Y316193D01*
X241637Y316503D01*
X242238Y316798D01*
X242846Y317079D01*
X243460Y317344D01*
X244081Y317594D01*
X244708Y317830D01*
X245340Y318049D01*
X245978Y318253D01*
X246620Y318442D01*
X247267Y318615D01*
X247918Y318771D01*
X248573Y318912D01*
X249230Y319037D01*
X249891Y319146D01*
X250554Y319238D01*
X251219Y319314D01*
X251886Y319374D01*
X252554Y319418D01*
X253223Y319445D01*
X253893Y319456D01*
X254562Y319450D01*
X255231Y319428D01*
X255900Y319390D01*
X256567Y319335D01*
X257233Y319264D01*
X257897Y319177D01*
X258558Y319074D01*
X259217Y318954D01*
X259872Y318818D01*
X260524Y318667D01*
X261173Y318499D01*
X261816Y318316D01*
X262456Y318116D01*
X263090Y317902D01*
X263719Y317671D01*
X264341Y317426D01*
X264958Y317165D01*
X265568Y316890D01*
X266171Y316599D01*
X266767Y316294D01*
X267356Y315974D01*
X267936Y315640D01*
X268508Y315292D01*
X269071Y314930D01*
X269625Y314555D01*
X270170Y314165D01*
X270705Y313763D01*
X271230Y313348D01*
X271745Y312920D01*
X272249Y312479D01*
X272742Y312027D01*
X273225Y311562D01*
X273695Y311086D01*
X274154Y310598D01*
X274600Y310099D01*
X275035Y309590D01*
X275456Y309070D01*
X275865Y308540D01*
X276261Y308000D01*
X276643Y307450D01*
X277012Y306891D01*
X277367Y306324D01*
X277709Y305748D01*
X278035Y305163D01*
X278348Y304571D01*
X278646Y303972D01*
X278929Y303365D01*
X279197Y302752D01*
X279450Y302132D01*
X279688Y301506D01*
X279911Y300874D01*
X280118Y300238D01*
X279981Y300196D01*
X279775Y300829D01*
X279554Y301457D01*
X279317Y302080D01*
X279065Y302696D01*
X278798Y303306D01*
X278517Y303910D01*
X278220Y304506D01*
X277910Y305095D01*
X277584Y305677D01*
X277245Y306250D01*
X276892Y306814D01*
X276525Y307370D01*
X276145Y307917D01*
X275751Y308454D01*
X275344Y308981D01*
X274925Y309499D01*
X274493Y310005D01*
X274048Y310501D01*
X273592Y310987D01*
X273124Y311460D01*
X272644Y311923D01*
X272154Y312373D01*
X271652Y312811D01*
X271140Y313237D01*
X270618Y313650D01*
X270085Y314050D01*
X269543Y314437D01*
X268992Y314811D01*
X268432Y315171D01*
X267863Y315517D01*
X267286Y315849D01*
X266700Y316168D01*
X266108Y316471D01*
X265508Y316760D01*
X264901Y317034D01*
X264287Y317294D01*
X263668Y317538D01*
X263042Y317767D01*
X262411Y317980D01*
X261776Y318178D01*
X261135Y318361D01*
X260490Y318528D01*
X259842Y318679D01*
X259189Y318814D01*
X258534Y318933D01*
X257876Y319036D01*
X257216Y319122D01*
X256554Y319193D01*
X255890Y319247D01*
X255225Y319285D01*
X254559Y319307D01*
X253893Y319313D01*
X253227Y319302D01*
X252562Y319275D01*
X251897Y319232D01*
X251234Y319172D01*
X250572Y319096D01*
X249913Y319004D01*
X249256Y318896D01*
X248601Y318772D01*
X247950Y318632D01*
X247303Y318476D01*
X246659Y318304D01*
X246020Y318117D01*
X245386Y317914D01*
X244757Y317695D01*
X244133Y317461D01*
X243516Y317212D01*
X242904Y316948D01*
X242299Y316669D01*
X241702Y316375D01*
X241111Y316067D01*
X240529Y315745D01*
X239954Y315408D01*
X239388Y315057D01*
X238830Y314693D01*
X238282Y314315D01*
X237743Y313923D01*
X237214Y313519D01*
X237302Y313407D01*
X237829Y313809D01*
X238365Y314198D01*
X238910Y314574D01*
X239465Y314937D01*
X240028Y315286D01*
X240600Y315621D01*
X241179Y315941D01*
X241767Y316248D01*
X242361Y316540D01*
X242963Y316818D01*
X243571Y317080D01*
X244185Y317328D01*
X244806Y317561D01*
X245431Y317778D01*
X246062Y317980D01*
X246698Y318167D01*
X247338Y318337D01*
X247982Y318493D01*
X248630Y318632D01*
X249281Y318755D01*
X249934Y318863D01*
X250591Y318954D01*
X251249Y319030D01*
X251909Y319089D01*
X252570Y319132D01*
X253232Y319159D01*
X253894Y319170D01*
X254556Y319164D01*
X255219Y319143D01*
X255880Y319105D01*
X256540Y319051D01*
X257199Y318980D01*
X257856Y318894D01*
X258510Y318792D01*
X259162Y318673D01*
X259811Y318539D01*
X260456Y318389D01*
X261098Y318223D01*
X261735Y318041D01*
X262367Y317844D01*
X262995Y317632D01*
X263617Y317404D01*
X264233Y317161D01*
X264843Y316903D01*
X265447Y316631D01*
X266044Y316343D01*
X266634Y316041D01*
X267216Y315725D01*
X267790Y315394D01*
X268356Y315050D01*
X268913Y314692D01*
X269462Y314320D01*
X270001Y313935D01*
X270530Y313537D01*
X271050Y313126D01*
X271559Y312702D01*
X272058Y312266D01*
X272546Y311819D01*
X273023Y311359D01*
X273489Y310887D01*
X273943Y310405D01*
X274385Y309911D01*
X274815Y309407D01*
X275232Y308893D01*
X275636Y308368D01*
X276028Y307834D01*
X276406Y307290D01*
X276771Y306737D01*
X277123Y306176D01*
X277460Y305605D01*
X277784Y305027D01*
X278093Y304441D01*
X278388Y303848D01*
X278668Y303248D01*
X278933Y302641D01*
X279184Y302028D01*
X279419Y301408D01*
X279639Y300783D01*
X279844Y300153D01*
X279708Y300111D01*
X279504Y300738D01*
X279285Y301359D01*
X279051Y301975D01*
X278802Y302585D01*
X278538Y303189D01*
X278259Y303786D01*
X277966Y304377D01*
X277658Y304959D01*
X277336Y305534D01*
X277001Y306101D01*
X276651Y306660D01*
X276288Y307210D01*
X275911Y307751D01*
X275522Y308282D01*
X275119Y308804D01*
X274704Y309316D01*
X274277Y309818D01*
X273837Y310308D01*
X273386Y310788D01*
X272923Y311257D01*
X272448Y311715D01*
X271963Y312160D01*
X271466Y312594D01*
X270960Y313015D01*
X270443Y313424D01*
X269916Y313820D01*
X269380Y314203D01*
X268834Y314572D01*
X268280Y314929D01*
X267717Y315271D01*
X267146Y315600D01*
X266567Y315915D01*
X265980Y316215D01*
X265387Y316501D01*
X264786Y316772D01*
X264179Y317029D01*
X263566Y317270D01*
X262947Y317497D01*
X262323Y317708D01*
X261694Y317904D01*
X261060Y318085D01*
X260422Y318250D01*
X259780Y318399D01*
X259135Y318533D01*
X258487Y318651D01*
X257836Y318752D01*
X257182Y318838D01*
X256527Y318908D01*
X255870Y318962D01*
X255212Y319000D01*
X254554Y319021D01*
X253895Y319027D01*
X253236Y319016D01*
X252577Y318989D01*
X251920Y318947D01*
X251263Y318888D01*
X250609Y318813D01*
X249956Y318722D01*
X249306Y318615D01*
X248658Y318492D01*
X248014Y318353D01*
X247374Y318199D01*
X246737Y318029D01*
X246105Y317843D01*
X245477Y317643D01*
X244854Y317426D01*
X244237Y317195D01*
X243626Y316949D01*
X243021Y316687D01*
X242423Y316411D01*
X241831Y316121D01*
X241247Y315816D01*
X240671Y315496D01*
X240102Y315163D01*
X239542Y314816D01*
X238990Y314456D01*
X238448Y314082D01*
X237915Y313695D01*
X237391Y313294D01*
X237480Y313182D01*
X238000Y313580D01*
X238531Y313965D01*
X239070Y314337D01*
X239619Y314696D01*
X240176Y315041D01*
X240742Y315372D01*
X241315Y315690D01*
X241896Y315993D01*
X242485Y316282D01*
X243080Y316557D01*
X243682Y316817D01*
X244290Y317062D01*
X244903Y317292D01*
X245522Y317507D01*
X246147Y317707D01*
X246776Y317891D01*
X247409Y318060D01*
X248046Y318214D01*
X248687Y318352D01*
X249331Y318474D01*
X249978Y318580D01*
X250627Y318671D01*
X251278Y318745D01*
X251931Y318804D01*
X252585Y318847D01*
X253240Y318873D01*
X253895Y318884D01*
X254551Y318878D01*
X255206Y318857D01*
X255860Y318819D01*
X256514Y318766D01*
X257165Y318696D01*
X257815Y318611D01*
X258463Y318510D01*
X259108Y318392D01*
X259750Y318260D01*
X260388Y318111D01*
X261023Y317947D01*
X261653Y317767D01*
X262279Y317572D01*
X262900Y317362D01*
X263515Y317137D01*
X264125Y316896D01*
X264729Y316641D01*
X265326Y316371D01*
X265917Y316087D01*
X266500Y315788D01*
X267076Y315475D01*
X267644Y315148D01*
X268204Y314807D01*
X268755Y314453D01*
X269298Y314085D01*
X269831Y313704D01*
X270355Y313311D01*
X270869Y312904D01*
X271373Y312485D01*
X271867Y312054D01*
X272350Y311610D01*
X272822Y311156D01*
X273283Y310689D01*
X273732Y310212D01*
X274169Y309724D01*
X274594Y309225D01*
X275007Y308716D01*
X275407Y308197D01*
X275795Y307668D01*
X276169Y307130D01*
X276531Y306583D01*
X276878Y306027D01*
X277212Y305463D01*
X277532Y304891D01*
X277838Y304312D01*
X278130Y303725D01*
X278407Y303131D01*
X278670Y302530D01*
X278918Y301923D01*
X279150Y301311D01*
X279368Y300692D01*
X279571Y300069D01*
X279434Y300027D01*
X279233Y300647D01*
X279016Y301262D01*
X278784Y301871D01*
X278538Y302475D01*
X278277Y303072D01*
X278001Y303663D01*
X277711Y304247D01*
X277406Y304823D01*
X277088Y305392D01*
X276756Y305953D01*
X276410Y306506D01*
X276051Y307050D01*
X275678Y307585D01*
X275293Y308111D01*
X274895Y308627D01*
X274484Y309134D01*
X274061Y309630D01*
X273626Y310115D01*
X273180Y310590D01*
X272721Y311054D01*
X272252Y311506D01*
X271772Y311947D01*
X271281Y312376D01*
X270779Y312793D01*
X270268Y313197D01*
X269747Y313589D01*
X269216Y313968D01*
X268677Y314334D01*
X268128Y314686D01*
X267571Y315025D01*
X267006Y315350D01*
X266433Y315662D01*
X265853Y315959D01*
X265266Y316242D01*
X264671Y316510D01*
X264071Y316764D01*
X263464Y317003D01*
X262852Y317227D01*
X262235Y317436D01*
X261612Y317630D01*
X260985Y317809D01*
X260354Y317972D01*
X259719Y318120D01*
X259081Y318252D01*
X258439Y318369D01*
X257795Y318469D01*
X257149Y318554D01*
X256500Y318623D01*
X255851Y318677D01*
X255200Y318714D01*
X254548Y318735D01*
X253896Y318741D01*
X253244Y318730D01*
X252593Y318704D01*
X251942Y318661D01*
X251293Y318603D01*
X250645Y318529D01*
X249999Y318439D01*
X249356Y318333D01*
X248716Y318212D01*
X248078Y318075D01*
X247444Y317922D01*
X246814Y317754D01*
X246189Y317570D01*
X245568Y317371D01*
X244952Y317157D01*
X244342Y316929D01*
X243737Y316685D01*
X243138Y316426D01*
X242546Y316153D01*
X241961Y315866D01*
X241383Y315564D01*
X240813Y315248D01*
X240250Y314919D01*
X239696Y314575D01*
X239150Y314219D01*
X238614Y313849D01*
X238086Y313466D01*
X237568Y313070D01*
X237657Y312958D01*
X238172Y313351D01*
X238697Y313732D01*
X239230Y314100D01*
X239773Y314455D01*
X240325Y314796D01*
X240884Y315124D01*
X241451Y315438D01*
X242026Y315738D01*
X242608Y316024D01*
X243197Y316296D01*
X243792Y316553D01*
X244394Y316795D01*
X245001Y317023D01*
X245613Y317236D01*
X246231Y317434D01*
X246853Y317616D01*
X247480Y317783D01*
X248110Y317935D01*
X248744Y318072D01*
X249381Y318192D01*
X250021Y318298D01*
X250663Y318387D01*
X251308Y318461D01*
X251953Y318519D01*
X252600Y318561D01*
X253248Y318587D01*
X253897Y318598D01*
X254545Y318592D01*
X255193Y318571D01*
X255841Y318534D01*
X256487Y318481D01*
X257132Y318412D01*
X257775Y318328D01*
X258415Y318228D01*
X259053Y318112D01*
X259688Y317980D01*
X260320Y317833D01*
X260948Y317671D01*
X261571Y317493D01*
X262190Y317300D01*
X262805Y317092D01*
X263414Y316870D01*
X264017Y316632D01*
X264614Y316379D01*
X265205Y316112D01*
X265789Y315831D01*
X266366Y315535D01*
X266936Y315226D01*
X267498Y314902D01*
X268052Y314565D01*
X268598Y314215D01*
X269134Y313851D01*
X269662Y313474D01*
X270180Y313084D01*
X270689Y312682D01*
X271188Y312267D01*
X271676Y311841D01*
X272154Y311402D01*
X272621Y310952D01*
X273076Y310491D01*
X273521Y310019D01*
X273953Y309536D01*
X274374Y309042D01*
X274783Y308539D01*
X275179Y308025D01*
X275562Y307502D01*
X275932Y306970D01*
X276290Y306429D01*
X276634Y305879D01*
X276964Y305321D01*
X277281Y304755D01*
X277583Y304182D01*
X277872Y303601D01*
X278146Y303014D01*
X278406Y302419D01*
X278651Y301819D01*
X278882Y301213D01*
X279097Y300601D01*
X279298Y299985D01*
X279161Y299943D01*
X278962Y300556D01*
X278747Y301164D01*
X278518Y301767D01*
X278274Y302364D01*
X278016Y302955D01*
X277743Y303539D01*
X277456Y304117D01*
X277155Y304687D01*
X276840Y305250D01*
X276511Y305805D01*
X276169Y306352D01*
X275814Y306890D01*
X275445Y307419D01*
X275064Y307939D01*
X274670Y308450D01*
X274264Y308951D01*
X273846Y309442D01*
X273415Y309922D01*
X272973Y310392D01*
X272520Y310851D01*
X272056Y311298D01*
X271581Y311734D01*
X271095Y312159D01*
X270599Y312571D01*
X270093Y312971D01*
X269577Y313359D01*
X269053Y313733D01*
X268519Y314095D01*
X267976Y314444D01*
X267425Y314779D01*
X266866Y315101D01*
X266300Y315409D01*
X265726Y315703D01*
X265145Y315983D01*
X264557Y316248D01*
X263963Y316499D01*
X263363Y316736D01*
X262757Y316958D01*
X262146Y317164D01*
X261530Y317356D01*
X260910Y317533D01*
X260286Y317694D01*
X259658Y317841D01*
X259026Y317971D01*
X258392Y318087D01*
X257754Y318186D01*
X257115Y318270D01*
X256474Y318339D01*
X255831Y318391D01*
X255187Y318428D01*
X254542Y318449D01*
X253897Y318455D01*
X253253Y318444D01*
X252608Y318418D01*
X251965Y318376D01*
X251322Y318319D01*
X250682Y318245D01*
X250043Y318156D01*
X249406Y318052D01*
X248773Y317931D01*
X248142Y317796D01*
X247515Y317645D01*
X246892Y317478D01*
X246273Y317297D01*
X245659Y317100D01*
X245050Y316889D01*
X244446Y316662D01*
X243848Y316421D01*
X243256Y316165D01*
X242670Y315895D01*
X242091Y315611D01*
X241519Y315312D01*
X240955Y315000D01*
X240399Y314674D01*
X239850Y314335D01*
X239311Y313982D01*
X238779Y313616D01*
X238258Y313237D01*
X237745Y312845D01*
X237834Y312733D01*
X238343Y313122D01*
X238862Y313499D01*
X239391Y313863D01*
X239927Y314214D01*
X240473Y314552D01*
X241026Y314876D01*
X241587Y315187D01*
X242156Y315484D01*
X242732Y315766D01*
X243314Y316035D01*
X243903Y316289D01*
X244498Y316529D01*
X245099Y316754D01*
X245704Y316965D01*
X246315Y317160D01*
X246931Y317341D01*
X247551Y317506D01*
X248174Y317656D01*
X248801Y317791D01*
X249431Y317911D01*
X250064Y318015D01*
X250700Y318103D01*
X251337Y318176D01*
X251976Y318234D01*
X252616Y318275D01*
X253257Y318301D01*
X253898Y318312D01*
X254540Y318306D01*
X255181Y318285D01*
X255821Y318249D01*
X256460Y318196D01*
X257098Y318128D01*
X257734Y318045D01*
X258368Y317946D01*
X258999Y317831D01*
X259627Y317701D01*
X260252Y317556D01*
X260873Y317395D01*
X261490Y317219D01*
X262102Y317028D01*
X262710Y316823D01*
X263312Y316602D01*
X263909Y316367D01*
X264500Y316117D01*
X265084Y315853D01*
X265662Y315575D01*
X266233Y315282D01*
X266796Y314976D01*
X267352Y314656D01*
X267900Y314323D01*
X268440Y313976D01*
X268971Y313616D01*
X269493Y313243D01*
X270006Y312858D01*
X270509Y312460D01*
X271002Y312050D01*
X271485Y311628D01*
X271958Y311194D01*
X272419Y310749D01*
X272870Y310293D01*
X273310Y309826D01*
X273738Y309348D01*
X274154Y308860D01*
X274558Y308362D01*
X274950Y307854D01*
X275329Y307336D01*
X275695Y306810D01*
X276049Y306275D01*
X276389Y305731D01*
X276716Y305179D01*
X277029Y304619D01*
X277328Y304052D01*
X277614Y303478D01*
X277885Y302896D01*
X278142Y302309D01*
X278385Y301715D01*
X278613Y301115D01*
X278826Y300510D01*
X279024Y299900D01*
X278888Y299858D01*
X278691Y300465D01*
X278478Y301067D01*
X278252Y301663D01*
X278010Y302253D01*
X277755Y302838D01*
X277485Y303416D01*
X277201Y303987D01*
X276903Y304551D01*
X276592Y305108D01*
X276267Y305657D01*
X275928Y306198D01*
X275577Y306730D01*
X275212Y307254D01*
X274835Y307768D01*
X274446Y308273D01*
X274044Y308769D01*
X273630Y309254D01*
X273204Y309729D01*
X272767Y310194D01*
X272319Y310648D01*
X271860Y311090D01*
X271389Y311522D01*
X270909Y311941D01*
X270419Y312349D01*
X269918Y312745D01*
X269408Y313128D01*
X268889Y313499D01*
X268361Y313857D01*
X267824Y314202D01*
X267279Y314533D01*
X266727Y314851D01*
X266166Y315156D01*
X265598Y315447D01*
X265024Y315724D01*
X264442Y315986D01*
X263855Y316235D01*
X263261Y316469D01*
X262662Y316688D01*
X262058Y316892D01*
X261449Y317082D01*
X260835Y317257D01*
X260218Y317417D01*
X259596Y317561D01*
X258972Y317691D01*
X258344Y317805D01*
X257714Y317903D01*
X257081Y317986D01*
X256447Y318054D01*
X255811Y318106D01*
X255174Y318143D01*
X254537Y318163D01*
X253899Y318169D01*
X253261Y318159D01*
X252624Y318133D01*
X251987Y318091D01*
X251352Y318034D01*
X250718Y317962D01*
X250086Y317874D01*
X249457Y317770D01*
X248830Y317651D01*
X248206Y317517D01*
X247586Y317368D01*
X246970Y317203D01*
X246358Y317024D01*
X245750Y316829D01*
X245147Y316620D01*
X244550Y316396D01*
X243958Y316157D01*
X243373Y315905D01*
X242793Y315637D01*
X242221Y315356D01*
X241655Y315061D01*
X241097Y314752D01*
X240547Y314429D01*
X240005Y314094D01*
X239471Y313745D01*
X238945Y313383D01*
X238429Y313008D01*
X237922Y312621D01*
X237125Y270569D02*
X237975Y271647D01*
X237974Y271646D02*
X238480Y271260D01*
X238994Y270887D01*
X239518Y270526D01*
X240050Y270178D01*
X240590Y269843D01*
X241139Y269522D01*
X241695Y269214D01*
X242259Y268920D01*
X242830Y268640D01*
X243407Y268373D01*
X243991Y268121D01*
X244581Y267883D01*
X245176Y267660D01*
X245777Y267452D01*
X246382Y267258D01*
X246992Y267079D01*
X247607Y266915D01*
X248225Y266766D01*
X248846Y266632D01*
X249471Y266514D01*
X250099Y266411D01*
X250728Y266323D01*
X251360Y266250D01*
X251993Y266194D01*
X252628Y266152D01*
X253263Y266126D01*
X253899Y266116D01*
X254535Y266122D01*
X255170Y266142D01*
X255805Y266179D01*
X256439Y266231D01*
X257071Y266298D01*
X257701Y266381D01*
X258329Y266479D01*
X258955Y266593D01*
X259578Y266722D01*
X260197Y266866D01*
X260813Y267025D01*
X261424Y267199D01*
X262031Y267388D01*
X262633Y267592D01*
X263231Y267811D01*
X263822Y268044D01*
X264408Y268291D01*
X264987Y268553D01*
X265560Y268829D01*
X266126Y269119D01*
X266685Y269423D01*
X267236Y269740D01*
X267779Y270070D01*
X268314Y270414D01*
X268840Y270771D01*
X269358Y271140D01*
X269866Y271522D01*
X270365Y271917D01*
X270854Y272323D01*
X271332Y272741D01*
X271801Y273171D01*
X272259Y273613D01*
X272706Y274065D01*
X273141Y274528D01*
X273566Y275002D01*
X273978Y275485D01*
X274379Y275979D01*
X274767Y276483D01*
X275143Y276996D01*
X275506Y277517D01*
X275857Y278048D01*
X276194Y278587D01*
X276518Y279134D01*
X276828Y279689D01*
X277125Y280251D01*
X277408Y280821D01*
X277677Y281397D01*
X277932Y281979D01*
X278172Y282568D01*
X278398Y283162D01*
X278610Y283762D01*
X278806Y284367D01*
X280117Y283963D01*
X280118Y283962D01*
X279911Y283325D01*
X279688Y282694D01*
X279450Y282068D01*
X279197Y281448D01*
X278929Y280835D01*
X278646Y280228D01*
X278348Y279629D01*
X278035Y279036D01*
X277708Y278452D01*
X277367Y277876D01*
X277012Y277308D01*
X276643Y276750D01*
X276261Y276200D01*
X275865Y275660D01*
X275456Y275130D01*
X275035Y274610D01*
X274600Y274100D01*
X274154Y273602D01*
X273695Y273114D01*
X273224Y272638D01*
X272742Y272173D01*
X272249Y271720D01*
X271745Y271280D01*
X271230Y270852D01*
X270705Y270437D01*
X270170Y270034D01*
X269625Y269645D01*
X269071Y269270D01*
X268507Y268908D01*
X267935Y268560D01*
X267355Y268226D01*
X266767Y267906D01*
X266171Y267601D01*
X265568Y267310D01*
X264958Y267035D01*
X264341Y266774D01*
X263718Y266528D01*
X263089Y266298D01*
X262455Y266083D01*
X261816Y265884D01*
X261172Y265701D01*
X260524Y265533D01*
X259872Y265382D01*
X259216Y265246D01*
X258558Y265126D01*
X257896Y265023D01*
X257232Y264936D01*
X256567Y264865D01*
X255899Y264810D01*
X255231Y264772D01*
X254562Y264750D01*
X253892Y264744D01*
X253223Y264755D01*
X252554Y264782D01*
X251886Y264826D01*
X251219Y264886D01*
X250554Y264962D01*
X249891Y265054D01*
X249230Y265163D01*
X248572Y265288D01*
X247918Y265429D01*
X247267Y265586D01*
X246620Y265758D01*
X245978Y265947D01*
X245340Y266151D01*
X244707Y266371D01*
X244081Y266606D01*
X243460Y266856D01*
X242845Y267122D01*
X242237Y267402D01*
X241636Y267697D01*
X241043Y268007D01*
X240457Y268332D01*
X239879Y268670D01*
X239310Y269023D01*
X238750Y269389D01*
X238199Y269769D01*
X237657Y270162D01*
X237125Y270569D01*
X237214Y270681D01*
X237743Y270277D01*
X238282Y269886D01*
X238830Y269508D01*
X239387Y269143D01*
X239954Y268792D01*
X240528Y268456D01*
X241111Y268133D01*
X241701Y267825D01*
X242299Y267531D01*
X242904Y267252D01*
X243515Y266988D01*
X244133Y266739D01*
X244756Y266505D01*
X245385Y266287D01*
X246020Y266083D01*
X246659Y265896D01*
X247302Y265724D01*
X247950Y265568D01*
X248601Y265428D01*
X249255Y265304D01*
X249912Y265196D01*
X250572Y265104D01*
X251234Y265028D01*
X251897Y264968D01*
X252562Y264925D01*
X253227Y264898D01*
X253893Y264887D01*
X254559Y264893D01*
X255225Y264915D01*
X255889Y264953D01*
X256553Y265007D01*
X257215Y265078D01*
X257876Y265164D01*
X258534Y265267D01*
X259189Y265386D01*
X259841Y265521D01*
X260490Y265672D01*
X261135Y265839D01*
X261775Y266021D01*
X262411Y266219D01*
X263042Y266433D01*
X263667Y266662D01*
X264287Y266906D01*
X264900Y267166D01*
X265507Y267440D01*
X266107Y267729D01*
X266700Y268032D01*
X267285Y268350D01*
X267863Y268683D01*
X268431Y269029D01*
X268992Y269389D01*
X269543Y269763D01*
X270085Y270150D01*
X270617Y270550D01*
X271140Y270963D01*
X271652Y271389D01*
X272153Y271827D01*
X272644Y272277D01*
X273124Y272739D01*
X273592Y273213D01*
X274048Y273698D01*
X274492Y274194D01*
X274924Y274701D01*
X275344Y275219D01*
X275751Y275746D01*
X276144Y276283D01*
X276525Y276830D01*
X276892Y277386D01*
X277245Y277950D01*
X277584Y278523D01*
X277909Y279104D01*
X278220Y279693D01*
X278517Y280290D01*
X278798Y280893D01*
X279065Y281504D01*
X279317Y282120D01*
X279554Y282743D01*
X279775Y283371D01*
X279981Y284004D01*
X279844Y284046D01*
X279639Y283416D01*
X279419Y282791D01*
X279184Y282172D01*
X278933Y281559D01*
X278668Y280952D01*
X278388Y280352D01*
X278093Y279758D01*
X277784Y279172D01*
X277460Y278594D01*
X277123Y278024D01*
X276771Y277463D01*
X276406Y276910D01*
X276028Y276366D01*
X275636Y275832D01*
X275232Y275307D01*
X274814Y274792D01*
X274385Y274288D01*
X273943Y273795D01*
X273489Y273312D01*
X273023Y272841D01*
X272546Y272381D01*
X272058Y271933D01*
X271559Y271497D01*
X271050Y271074D01*
X270530Y270663D01*
X270000Y270265D01*
X269461Y269880D01*
X268913Y269508D01*
X268356Y269150D01*
X267790Y268806D01*
X267215Y268475D01*
X266633Y268159D01*
X266044Y267857D01*
X265447Y267569D01*
X264843Y267297D01*
X264233Y267039D01*
X263617Y266796D01*
X262994Y266568D01*
X262367Y266355D01*
X261734Y266158D01*
X261097Y265977D01*
X260456Y265811D01*
X259811Y265661D01*
X259162Y265527D01*
X258510Y265408D01*
X257855Y265306D01*
X257199Y265220D01*
X256540Y265149D01*
X255880Y265095D01*
X255218Y265057D01*
X254556Y265036D01*
X253894Y265030D01*
X253231Y265041D01*
X252569Y265068D01*
X251908Y265111D01*
X251248Y265170D01*
X250590Y265246D01*
X249934Y265337D01*
X249280Y265445D01*
X248629Y265568D01*
X247982Y265707D01*
X247338Y265863D01*
X246698Y266034D01*
X246062Y266220D01*
X245431Y266422D01*
X244805Y266639D01*
X244185Y266872D01*
X243570Y267120D01*
X242962Y267383D01*
X242361Y267660D01*
X241766Y267952D01*
X241179Y268259D01*
X240599Y268580D01*
X240028Y268915D01*
X239464Y269264D01*
X238910Y269626D01*
X238365Y270002D01*
X237828Y270391D01*
X237302Y270794D01*
X237391Y270906D01*
X237914Y270506D01*
X238447Y270119D01*
X238990Y269745D01*
X239542Y269384D01*
X240102Y269037D01*
X240670Y268704D01*
X241247Y268385D01*
X241831Y268080D01*
X242422Y267789D01*
X243021Y267513D01*
X243626Y267252D01*
X244237Y267005D01*
X244854Y266774D01*
X245476Y266558D01*
X246104Y266357D01*
X246736Y266171D01*
X247373Y266001D01*
X248014Y265847D01*
X248658Y265708D01*
X249305Y265585D01*
X249956Y265478D01*
X250608Y265387D01*
X251263Y265312D01*
X251919Y265254D01*
X252577Y265211D01*
X253235Y265184D01*
X253894Y265173D01*
X254553Y265179D01*
X255212Y265200D01*
X255870Y265238D01*
X256527Y265292D01*
X257182Y265362D01*
X257835Y265448D01*
X258486Y265549D01*
X259135Y265667D01*
X259780Y265801D01*
X260422Y265950D01*
X261060Y266115D01*
X261694Y266295D01*
X262323Y266491D01*
X262947Y266703D01*
X263566Y266929D01*
X264179Y267171D01*
X264786Y267428D01*
X265386Y267699D01*
X265980Y267985D01*
X266567Y268285D01*
X267146Y268600D01*
X267717Y268929D01*
X268280Y269271D01*
X268834Y269627D01*
X269379Y269997D01*
X269916Y270380D01*
X270442Y270776D01*
X270959Y271185D01*
X271466Y271606D01*
X271962Y272040D01*
X272448Y272485D01*
X272922Y272943D01*
X273386Y273411D01*
X273837Y273891D01*
X274277Y274382D01*
X274704Y274884D01*
X275119Y275396D01*
X275522Y275917D01*
X275911Y276449D01*
X276288Y276990D01*
X276651Y277540D01*
X277000Y278098D01*
X277336Y278665D01*
X277658Y279240D01*
X277965Y279823D01*
X278259Y280413D01*
X278537Y281011D01*
X278801Y281614D01*
X279051Y282224D01*
X279285Y282840D01*
X279504Y283462D01*
X279708Y284089D01*
X279571Y284131D01*
X279368Y283507D01*
X279150Y282889D01*
X278917Y282276D01*
X278670Y281670D01*
X278407Y281069D01*
X278130Y280475D01*
X277838Y279888D01*
X277532Y279308D01*
X277212Y278736D01*
X276878Y278172D01*
X276530Y277617D01*
X276169Y277070D01*
X275795Y276532D01*
X275407Y276003D01*
X275007Y275484D01*
X274594Y274975D01*
X274169Y274476D01*
X273732Y273988D01*
X273282Y273510D01*
X272822Y273044D01*
X272350Y272589D01*
X271867Y272146D01*
X271373Y271715D01*
X270869Y271296D01*
X270355Y270889D01*
X269831Y270495D01*
X269298Y270114D01*
X268755Y269747D01*
X268204Y269392D01*
X267644Y269052D01*
X267076Y268725D01*
X266500Y268412D01*
X265916Y268113D01*
X265326Y267828D01*
X264728Y267559D01*
X264125Y267303D01*
X263515Y267063D01*
X262899Y266838D01*
X262278Y266627D01*
X261653Y266433D01*
X261022Y266253D01*
X260388Y266089D01*
X259749Y265940D01*
X259107Y265807D01*
X258462Y265690D01*
X257815Y265589D01*
X257165Y265504D01*
X256513Y265434D01*
X255860Y265381D01*
X255206Y265343D01*
X254550Y265322D01*
X253895Y265316D01*
X253240Y265327D01*
X252585Y265353D01*
X251931Y265396D01*
X251278Y265455D01*
X250627Y265529D01*
X249977Y265620D01*
X249331Y265726D01*
X248687Y265848D01*
X248046Y265986D01*
X247408Y266140D01*
X246775Y266309D01*
X246146Y266493D01*
X245522Y266693D01*
X244903Y266908D01*
X244289Y267138D01*
X243681Y267384D01*
X243079Y267643D01*
X242484Y267918D01*
X241896Y268207D01*
X241315Y268510D01*
X240741Y268828D01*
X240176Y269159D01*
X239619Y269504D01*
X239070Y269863D01*
X238530Y270235D01*
X238000Y270620D01*
X237479Y271018D01*
X237568Y271131D01*
X238086Y270735D01*
X238613Y270352D01*
X239150Y269982D01*
X239696Y269625D01*
X240250Y269282D01*
X240812Y268952D01*
X241383Y268636D01*
X241961Y268334D01*
X242546Y268047D01*
X243138Y267774D01*
X243736Y267515D01*
X244341Y267272D01*
X244952Y267043D01*
X245567Y266829D01*
X246188Y266630D01*
X246814Y266446D01*
X247444Y266278D01*
X248078Y266126D01*
X248715Y265988D01*
X249356Y265867D01*
X249999Y265761D01*
X250645Y265671D01*
X251292Y265597D01*
X251942Y265539D01*
X252592Y265496D01*
X253244Y265470D01*
X253896Y265459D01*
X254548Y265465D01*
X255199Y265486D01*
X255850Y265523D01*
X256500Y265577D01*
X257148Y265646D01*
X257795Y265731D01*
X258439Y265831D01*
X259080Y265948D01*
X259719Y266080D01*
X260354Y266228D01*
X260985Y266391D01*
X261612Y266570D01*
X262234Y266763D01*
X262852Y266973D01*
X263464Y267197D01*
X264071Y267436D01*
X264671Y267690D01*
X265265Y267958D01*
X265853Y268241D01*
X266433Y268538D01*
X267006Y268849D01*
X267571Y269175D01*
X268128Y269514D01*
X268676Y269866D01*
X269216Y270232D01*
X269746Y270611D01*
X270268Y271002D01*
X270779Y271407D01*
X271280Y271824D01*
X271771Y272253D01*
X272252Y272693D01*
X272721Y273146D01*
X273179Y273610D01*
X273626Y274084D01*
X274061Y274570D01*
X274484Y275066D01*
X274895Y275573D01*
X275293Y276089D01*
X275678Y276615D01*
X276051Y277150D01*
X276410Y277694D01*
X276756Y278247D01*
X277088Y278808D01*
X277406Y279376D01*
X277711Y279953D01*
X278001Y280537D01*
X278277Y281128D01*
X278538Y281725D01*
X278784Y282329D01*
X279016Y282938D01*
X279233Y283553D01*
X279434Y284173D01*
X279298Y284215D01*
X279097Y283598D01*
X278882Y282987D01*
X278651Y282381D01*
X278406Y281780D01*
X278146Y281186D01*
X277872Y280599D01*
X277583Y280018D01*
X277280Y279444D01*
X276964Y278879D01*
X276633Y278321D01*
X276289Y277771D01*
X275932Y277230D01*
X275562Y276698D01*
X275178Y276175D01*
X274782Y275661D01*
X274374Y275157D01*
X273953Y274664D01*
X273521Y274181D01*
X273076Y273709D01*
X272620Y273247D01*
X272154Y272797D01*
X271676Y272359D01*
X271187Y271932D01*
X270689Y271518D01*
X270180Y271116D01*
X269662Y270726D01*
X269134Y270349D01*
X268597Y269985D01*
X268052Y269635D01*
X267498Y269298D01*
X266936Y268974D01*
X266366Y268664D01*
X265789Y268369D01*
X265205Y268088D01*
X264614Y267821D01*
X264017Y267568D01*
X263413Y267330D01*
X262804Y267107D01*
X262190Y266899D01*
X261571Y266707D01*
X260947Y266529D01*
X260320Y266367D01*
X259688Y266220D01*
X259053Y266088D01*
X258415Y265972D01*
X257774Y265872D01*
X257131Y265788D01*
X256487Y265719D01*
X255840Y265666D01*
X255193Y265629D01*
X254545Y265608D01*
X253896Y265602D01*
X253248Y265613D01*
X252600Y265639D01*
X251953Y265681D01*
X251307Y265739D01*
X250663Y265813D01*
X250021Y265903D01*
X249381Y266008D01*
X248744Y266129D01*
X248110Y266265D01*
X247479Y266417D01*
X246853Y266584D01*
X246231Y266767D01*
X245613Y266964D01*
X245000Y267177D01*
X244393Y267405D01*
X243792Y267647D01*
X243197Y267904D01*
X242608Y268176D01*
X242026Y268462D01*
X241451Y268762D01*
X240884Y269076D01*
X240324Y269404D01*
X239773Y269745D01*
X239230Y270100D01*
X238696Y270468D01*
X238171Y270849D01*
X237656Y271243D01*
X237745Y271355D01*
X238257Y270964D01*
X238779Y270585D01*
X239310Y270219D01*
X239850Y269866D01*
X240398Y269526D01*
X240955Y269200D01*
X241519Y268888D01*
X242091Y268589D01*
X242669Y268305D01*
X243255Y268035D01*
X243847Y267779D01*
X244445Y267538D01*
X245049Y267311D01*
X245659Y267100D01*
X246273Y266903D01*
X246892Y266722D01*
X247515Y266555D01*
X248142Y266404D01*
X248772Y266269D01*
X249406Y266149D01*
X250042Y266044D01*
X250681Y265955D01*
X251322Y265881D01*
X251964Y265824D01*
X252608Y265782D01*
X253252Y265756D01*
X253897Y265745D01*
X254542Y265751D01*
X255187Y265772D01*
X255830Y265809D01*
X256473Y265861D01*
X257115Y265930D01*
X257754Y266014D01*
X258391Y266113D01*
X259026Y266229D01*
X259657Y266359D01*
X260285Y266505D01*
X260910Y266667D01*
X261530Y266844D01*
X262146Y267035D01*
X262757Y267242D01*
X263362Y267464D01*
X263962Y267700D01*
X264556Y267952D01*
X265144Y268217D01*
X265725Y268497D01*
X266299Y268791D01*
X266866Y269099D01*
X267425Y269421D01*
X267976Y269756D01*
X268518Y270105D01*
X269052Y270466D01*
X269577Y270841D01*
X270093Y271229D01*
X270599Y271629D01*
X271095Y272041D01*
X271580Y272465D01*
X272055Y272901D01*
X272520Y273349D01*
X272973Y273808D01*
X273415Y274278D01*
X273845Y274758D01*
X274264Y275249D01*
X274670Y275750D01*
X275064Y276260D01*
X275445Y276780D01*
X275814Y277310D01*
X276169Y277848D01*
X276511Y278395D01*
X276840Y278950D01*
X277155Y279512D01*
X277456Y280083D01*
X277743Y280660D01*
X278016Y281245D01*
X278274Y281836D01*
X278518Y282433D01*
X278747Y283036D01*
X278962Y283644D01*
X279161Y284257D01*
X279024Y284299D01*
X278826Y283689D01*
X278613Y283084D01*
X278385Y282485D01*
X278142Y281891D01*
X277885Y281303D01*
X277614Y280722D01*
X277328Y280148D01*
X277029Y279580D01*
X276716Y279021D01*
X276389Y278469D01*
X276049Y277925D01*
X275695Y277390D01*
X275329Y276863D01*
X274949Y276346D01*
X274558Y275838D01*
X274154Y275340D01*
X273738Y274852D01*
X273310Y274374D01*
X272870Y273907D01*
X272419Y273451D01*
X271957Y273005D01*
X271485Y272572D01*
X271002Y272150D01*
X270508Y271740D01*
X270005Y271342D01*
X269493Y270956D01*
X268971Y270584D01*
X268440Y270224D01*
X267900Y269877D01*
X267352Y269544D01*
X266796Y269224D01*
X266233Y268917D01*
X265662Y268625D01*
X265084Y268347D01*
X264499Y268083D01*
X263908Y267833D01*
X263312Y267598D01*
X262709Y267377D01*
X262102Y267171D01*
X261489Y266981D01*
X260872Y266805D01*
X260251Y266644D01*
X259627Y266499D01*
X258999Y266369D01*
X258367Y266254D01*
X257734Y266155D01*
X257098Y266072D01*
X256460Y266004D01*
X255821Y265951D01*
X255180Y265915D01*
X254539Y265894D01*
X253898Y265888D01*
X253256Y265899D01*
X252615Y265925D01*
X251975Y265966D01*
X251337Y266024D01*
X250699Y266097D01*
X250064Y266185D01*
X249431Y266289D01*
X248801Y266409D01*
X248174Y266544D01*
X247550Y266694D01*
X246930Y266859D01*
X246315Y267040D01*
X245704Y267235D01*
X245098Y267446D01*
X244497Y267671D01*
X243903Y267911D01*
X243314Y268165D01*
X242731Y268434D01*
X242156Y268717D01*
X241587Y269014D01*
X241026Y269324D01*
X240472Y269648D01*
X239927Y269986D01*
X239390Y270337D01*
X238862Y270701D01*
X238343Y271078D01*
X237833Y271467D01*
X237922Y271580D01*
X238429Y271192D01*
X238945Y270818D01*
X239470Y270456D01*
X240004Y270107D01*
X240546Y269771D01*
X241097Y269448D01*
X241655Y269139D01*
X242220Y268844D01*
X242793Y268563D01*
X243372Y268296D01*
X243958Y268043D01*
X244550Y267804D01*
X245147Y267580D01*
X245750Y267371D01*
X246357Y267177D01*
X246969Y266997D01*
X247586Y266832D01*
X248206Y266683D01*
X248829Y266549D01*
X249456Y266430D01*
X250086Y266327D01*
X250717Y266238D01*
X251351Y266166D01*
X251987Y266109D01*
X252623Y266067D01*
X253261Y266041D01*
X253898Y266031D01*
X254536Y266037D01*
X255174Y266057D01*
X255811Y266094D01*
X256447Y266146D01*
X257081Y266214D01*
X257713Y266297D01*
X258344Y266395D01*
X258971Y266509D01*
X259596Y266639D01*
X260217Y266783D01*
X260835Y266943D01*
X261448Y267118D01*
X262057Y267307D01*
X262662Y267512D01*
X263261Y267731D01*
X263854Y267965D01*
X264442Y268214D01*
X265023Y268476D01*
X265598Y268753D01*
X266166Y269044D01*
X266726Y269348D01*
X267279Y269667D01*
X267824Y269998D01*
X268361Y270343D01*
X268889Y270701D01*
X269408Y271072D01*
X269918Y271455D01*
X270418Y271851D01*
X270909Y272259D01*
X271389Y272678D01*
X271859Y273109D01*
X272319Y273552D01*
X272767Y274006D01*
X273204Y274471D01*
X273630Y274946D01*
X274044Y275431D01*
X274445Y275927D01*
X274835Y276432D01*
X275212Y276946D01*
X275577Y277470D01*
X275928Y278002D01*
X276267Y278543D01*
X276592Y279092D01*
X276903Y279649D01*
X277201Y280213D01*
X277485Y280784D01*
X277755Y281362D01*
X278010Y281946D01*
X278252Y282537D01*
X278478Y283133D01*
X278690Y283735D01*
X278888Y284341D01*
D10*
X237490Y271155D02*
X237490Y313045D01*
X251460Y314637D02*
X251460Y318649D01*
X251460Y294963D02*
X251460Y289237D01*
X251460Y269563D02*
X251460Y265551D01*
D11*
X264160Y242304D02*
X269240Y242304D01*
X264160Y242304D02*
X264049Y242306D01*
X263939Y242312D01*
X263828Y242321D01*
X263718Y242335D01*
X263609Y242352D01*
X263500Y242373D01*
X263392Y242398D01*
X263285Y242427D01*
X263179Y242459D01*
X263074Y242495D01*
X262971Y242535D01*
X262869Y242578D01*
X262768Y242625D01*
X262669Y242676D01*
X262573Y242729D01*
X262478Y242786D01*
X262385Y242847D01*
X262294Y242910D01*
X262205Y242977D01*
X262119Y243047D01*
X262036Y243120D01*
X261954Y243195D01*
X261876Y243273D01*
X261801Y243355D01*
X261728Y243438D01*
X261658Y243524D01*
X261591Y243613D01*
X261528Y243704D01*
X261467Y243797D01*
X261410Y243892D01*
X261357Y243988D01*
X261306Y244087D01*
X261259Y244188D01*
X261216Y244290D01*
X261176Y244393D01*
X261140Y244498D01*
X261108Y244604D01*
X261079Y244711D01*
X261054Y244819D01*
X261033Y244928D01*
X261016Y245037D01*
X261002Y245147D01*
X260993Y245258D01*
X260987Y245368D01*
X260985Y245479D01*
X260987Y245590D01*
X260993Y245700D01*
X261002Y245811D01*
X261016Y245921D01*
X261033Y246030D01*
X261054Y246139D01*
X261079Y246247D01*
X261108Y246354D01*
X261140Y246460D01*
X261176Y246565D01*
X261216Y246668D01*
X261259Y246770D01*
X261306Y246871D01*
X261357Y246970D01*
X261410Y247067D01*
X261467Y247161D01*
X261528Y247254D01*
X261591Y247345D01*
X261658Y247434D01*
X261728Y247520D01*
X261801Y247603D01*
X261876Y247685D01*
X261954Y247763D01*
X262036Y247838D01*
X262119Y247911D01*
X262205Y247981D01*
X262294Y248048D01*
X262385Y248111D01*
X262478Y248172D01*
X262573Y248229D01*
X262669Y248282D01*
X262768Y248333D01*
X262869Y248380D01*
X262971Y248423D01*
X263074Y248463D01*
X263179Y248499D01*
X263285Y248531D01*
X263392Y248560D01*
X263500Y248585D01*
X263609Y248606D01*
X263718Y248623D01*
X263828Y248637D01*
X263939Y248646D01*
X264049Y248652D01*
X264160Y248654D01*
X269240Y248654D01*
X269351Y248652D01*
X269461Y248646D01*
X269572Y248637D01*
X269682Y248623D01*
X269791Y248606D01*
X269900Y248585D01*
X270008Y248560D01*
X270115Y248531D01*
X270221Y248499D01*
X270326Y248463D01*
X270429Y248423D01*
X270531Y248380D01*
X270632Y248333D01*
X270731Y248282D01*
X270828Y248229D01*
X270922Y248172D01*
X271015Y248111D01*
X271106Y248048D01*
X271195Y247981D01*
X271281Y247911D01*
X271364Y247838D01*
X271446Y247763D01*
X271524Y247685D01*
X271599Y247603D01*
X271672Y247520D01*
X271742Y247434D01*
X271809Y247345D01*
X271872Y247254D01*
X271933Y247161D01*
X271990Y247066D01*
X272043Y246970D01*
X272094Y246871D01*
X272141Y246770D01*
X272184Y246668D01*
X272224Y246565D01*
X272260Y246460D01*
X272292Y246354D01*
X272321Y246247D01*
X272346Y246139D01*
X272367Y246030D01*
X272384Y245921D01*
X272398Y245811D01*
X272407Y245700D01*
X272413Y245590D01*
X272415Y245479D01*
X272413Y245368D01*
X272407Y245258D01*
X272398Y245147D01*
X272384Y245037D01*
X272367Y244928D01*
X272346Y244819D01*
X272321Y244711D01*
X272292Y244604D01*
X272260Y244498D01*
X272224Y244393D01*
X272184Y244290D01*
X272141Y244188D01*
X272094Y244087D01*
X272043Y243988D01*
X271990Y243891D01*
X271933Y243797D01*
X271872Y243704D01*
X271809Y243613D01*
X271742Y243524D01*
X271672Y243438D01*
X271599Y243355D01*
X271524Y243273D01*
X271446Y243195D01*
X271364Y243120D01*
X271281Y243047D01*
X271195Y242977D01*
X271106Y242910D01*
X271015Y242847D01*
X270922Y242786D01*
X270828Y242729D01*
X270731Y242676D01*
X270632Y242625D01*
X270531Y242578D01*
X270429Y242535D01*
X270326Y242495D01*
X270221Y242459D01*
X270115Y242427D01*
X270008Y242398D01*
X269900Y242373D01*
X269791Y242352D01*
X269682Y242335D01*
X269572Y242321D01*
X269461Y242312D01*
X269351Y242306D01*
X269240Y242304D01*
X269875Y247384D02*
X272415Y249924D01*
X263525Y253365D02*
X260985Y256540D01*
X272415Y256540D01*
X272415Y253365D02*
X272415Y259715D01*
D15*
X280117Y198637D02*
X278806Y198233D01*
X278807Y198233D02*
X278610Y198838D01*
X278399Y199438D01*
X278173Y200032D01*
X277932Y200620D01*
X277677Y201203D01*
X277408Y201779D01*
X277125Y202349D01*
X276828Y202911D01*
X276518Y203466D01*
X276194Y204013D01*
X275857Y204552D01*
X275506Y205082D01*
X275143Y205604D01*
X274767Y206117D01*
X274379Y206621D01*
X273978Y207114D01*
X273566Y207598D01*
X273142Y208072D01*
X272706Y208535D01*
X272259Y208987D01*
X271801Y209428D01*
X271333Y209858D01*
X270854Y210277D01*
X270365Y210683D01*
X269866Y211077D01*
X269358Y211460D01*
X268840Y211829D01*
X268314Y212186D01*
X267779Y212530D01*
X267236Y212860D01*
X266685Y213177D01*
X266126Y213481D01*
X265560Y213771D01*
X264988Y214047D01*
X264408Y214308D01*
X263822Y214556D01*
X263231Y214789D01*
X262634Y215008D01*
X262032Y215212D01*
X261425Y215401D01*
X260813Y215575D01*
X260197Y215734D01*
X259578Y215878D01*
X258955Y216007D01*
X258330Y216121D01*
X257702Y216219D01*
X257071Y216302D01*
X256439Y216369D01*
X255805Y216421D01*
X255171Y216458D01*
X254535Y216478D01*
X253899Y216484D01*
X253263Y216474D01*
X252628Y216448D01*
X251994Y216406D01*
X251360Y216350D01*
X250729Y216277D01*
X250099Y216189D01*
X249472Y216086D01*
X248847Y215968D01*
X248225Y215834D01*
X247607Y215685D01*
X246993Y215521D01*
X246383Y215342D01*
X245777Y215149D01*
X245176Y214940D01*
X244581Y214717D01*
X243991Y214479D01*
X243408Y214227D01*
X242830Y213961D01*
X242259Y213680D01*
X241696Y213386D01*
X241140Y213078D01*
X240591Y212757D01*
X240050Y212422D01*
X239518Y212074D01*
X238995Y211713D01*
X238480Y211340D01*
X237975Y210954D01*
X237126Y212031D01*
X237125Y212031D01*
X237657Y212438D01*
X238199Y212831D01*
X238750Y213211D01*
X239311Y213578D01*
X239880Y213930D01*
X240458Y214269D01*
X241043Y214593D01*
X241637Y214903D01*
X242238Y215198D01*
X242846Y215479D01*
X243460Y215744D01*
X244081Y215994D01*
X244708Y216230D01*
X245340Y216449D01*
X245978Y216653D01*
X246620Y216842D01*
X247267Y217015D01*
X247918Y217171D01*
X248573Y217312D01*
X249230Y217437D01*
X249891Y217546D01*
X250554Y217638D01*
X251219Y217714D01*
X251886Y217774D01*
X252554Y217818D01*
X253223Y217845D01*
X253893Y217856D01*
X254562Y217850D01*
X255231Y217828D01*
X255900Y217790D01*
X256567Y217735D01*
X257233Y217664D01*
X257897Y217577D01*
X258558Y217474D01*
X259217Y217354D01*
X259872Y217218D01*
X260524Y217067D01*
X261173Y216899D01*
X261816Y216716D01*
X262456Y216516D01*
X263090Y216302D01*
X263719Y216071D01*
X264341Y215826D01*
X264958Y215565D01*
X265568Y215290D01*
X266171Y214999D01*
X266767Y214694D01*
X267356Y214374D01*
X267936Y214040D01*
X268508Y213692D01*
X269071Y213330D01*
X269625Y212955D01*
X270170Y212565D01*
X270705Y212163D01*
X271230Y211748D01*
X271745Y211320D01*
X272249Y210879D01*
X272742Y210427D01*
X273225Y209962D01*
X273695Y209486D01*
X274154Y208998D01*
X274600Y208499D01*
X275035Y207990D01*
X275456Y207470D01*
X275865Y206940D01*
X276261Y206400D01*
X276643Y205850D01*
X277012Y205291D01*
X277367Y204724D01*
X277709Y204148D01*
X278035Y203563D01*
X278348Y202971D01*
X278646Y202372D01*
X278929Y201765D01*
X279197Y201152D01*
X279450Y200532D01*
X279688Y199906D01*
X279911Y199274D01*
X280118Y198638D01*
X279981Y198596D01*
X279775Y199229D01*
X279554Y199857D01*
X279317Y200480D01*
X279065Y201096D01*
X278798Y201706D01*
X278517Y202310D01*
X278220Y202906D01*
X277910Y203495D01*
X277584Y204077D01*
X277245Y204650D01*
X276892Y205214D01*
X276525Y205770D01*
X276145Y206317D01*
X275751Y206854D01*
X275344Y207381D01*
X274925Y207899D01*
X274493Y208405D01*
X274048Y208901D01*
X273592Y209387D01*
X273124Y209860D01*
X272644Y210323D01*
X272154Y210773D01*
X271652Y211211D01*
X271140Y211637D01*
X270618Y212050D01*
X270085Y212450D01*
X269543Y212837D01*
X268992Y213211D01*
X268432Y213571D01*
X267863Y213917D01*
X267286Y214249D01*
X266700Y214568D01*
X266108Y214871D01*
X265508Y215160D01*
X264901Y215434D01*
X264287Y215694D01*
X263668Y215938D01*
X263042Y216167D01*
X262411Y216380D01*
X261776Y216578D01*
X261135Y216761D01*
X260490Y216928D01*
X259842Y217079D01*
X259189Y217214D01*
X258534Y217333D01*
X257876Y217436D01*
X257216Y217522D01*
X256554Y217593D01*
X255890Y217647D01*
X255225Y217685D01*
X254559Y217707D01*
X253893Y217713D01*
X253227Y217702D01*
X252562Y217675D01*
X251897Y217632D01*
X251234Y217572D01*
X250572Y217496D01*
X249913Y217404D01*
X249256Y217296D01*
X248601Y217172D01*
X247950Y217032D01*
X247303Y216876D01*
X246659Y216704D01*
X246020Y216517D01*
X245386Y216314D01*
X244757Y216095D01*
X244133Y215861D01*
X243516Y215612D01*
X242904Y215348D01*
X242299Y215069D01*
X241702Y214775D01*
X241111Y214467D01*
X240529Y214145D01*
X239954Y213808D01*
X239388Y213457D01*
X238830Y213093D01*
X238282Y212715D01*
X237743Y212323D01*
X237214Y211919D01*
X237302Y211807D01*
X237829Y212209D01*
X238365Y212598D01*
X238910Y212974D01*
X239465Y213337D01*
X240028Y213686D01*
X240600Y214021D01*
X241179Y214341D01*
X241767Y214648D01*
X242361Y214940D01*
X242963Y215218D01*
X243571Y215480D01*
X244185Y215728D01*
X244806Y215961D01*
X245431Y216178D01*
X246062Y216380D01*
X246698Y216567D01*
X247338Y216737D01*
X247982Y216893D01*
X248630Y217032D01*
X249281Y217155D01*
X249934Y217263D01*
X250591Y217354D01*
X251249Y217430D01*
X251909Y217489D01*
X252570Y217532D01*
X253232Y217559D01*
X253894Y217570D01*
X254556Y217564D01*
X255219Y217543D01*
X255880Y217505D01*
X256540Y217451D01*
X257199Y217380D01*
X257856Y217294D01*
X258510Y217192D01*
X259162Y217073D01*
X259811Y216939D01*
X260456Y216789D01*
X261098Y216623D01*
X261735Y216441D01*
X262367Y216244D01*
X262995Y216032D01*
X263617Y215804D01*
X264233Y215561D01*
X264843Y215303D01*
X265447Y215031D01*
X266044Y214743D01*
X266634Y214441D01*
X267216Y214125D01*
X267790Y213794D01*
X268356Y213450D01*
X268913Y213092D01*
X269462Y212720D01*
X270001Y212335D01*
X270530Y211937D01*
X271050Y211526D01*
X271559Y211102D01*
X272058Y210666D01*
X272546Y210219D01*
X273023Y209759D01*
X273489Y209287D01*
X273943Y208805D01*
X274385Y208311D01*
X274815Y207807D01*
X275232Y207293D01*
X275636Y206768D01*
X276028Y206234D01*
X276406Y205690D01*
X276771Y205137D01*
X277123Y204576D01*
X277460Y204005D01*
X277784Y203427D01*
X278093Y202841D01*
X278388Y202248D01*
X278668Y201648D01*
X278933Y201041D01*
X279184Y200428D01*
X279419Y199808D01*
X279639Y199183D01*
X279844Y198553D01*
X279708Y198511D01*
X279504Y199138D01*
X279285Y199759D01*
X279051Y200375D01*
X278802Y200985D01*
X278538Y201589D01*
X278259Y202186D01*
X277966Y202777D01*
X277658Y203359D01*
X277336Y203934D01*
X277001Y204501D01*
X276651Y205060D01*
X276288Y205610D01*
X275911Y206151D01*
X275522Y206682D01*
X275119Y207204D01*
X274704Y207716D01*
X274277Y208218D01*
X273837Y208708D01*
X273386Y209188D01*
X272923Y209657D01*
X272448Y210115D01*
X271963Y210560D01*
X271466Y210994D01*
X270960Y211415D01*
X270443Y211824D01*
X269916Y212220D01*
X269380Y212603D01*
X268834Y212972D01*
X268280Y213329D01*
X267717Y213671D01*
X267146Y214000D01*
X266567Y214315D01*
X265980Y214615D01*
X265387Y214901D01*
X264786Y215172D01*
X264179Y215429D01*
X263566Y215670D01*
X262947Y215897D01*
X262323Y216108D01*
X261694Y216304D01*
X261060Y216485D01*
X260422Y216650D01*
X259780Y216799D01*
X259135Y216933D01*
X258487Y217051D01*
X257836Y217152D01*
X257182Y217238D01*
X256527Y217308D01*
X255870Y217362D01*
X255212Y217400D01*
X254554Y217421D01*
X253895Y217427D01*
X253236Y217416D01*
X252577Y217389D01*
X251920Y217347D01*
X251263Y217288D01*
X250609Y217213D01*
X249956Y217122D01*
X249306Y217015D01*
X248658Y216892D01*
X248014Y216753D01*
X247374Y216599D01*
X246737Y216429D01*
X246105Y216243D01*
X245477Y216043D01*
X244854Y215826D01*
X244237Y215595D01*
X243626Y215349D01*
X243021Y215087D01*
X242423Y214811D01*
X241831Y214521D01*
X241247Y214216D01*
X240671Y213896D01*
X240102Y213563D01*
X239542Y213216D01*
X238990Y212856D01*
X238448Y212482D01*
X237915Y212095D01*
X237391Y211694D01*
X237480Y211582D01*
X238000Y211980D01*
X238531Y212365D01*
X239070Y212737D01*
X239619Y213096D01*
X240176Y213441D01*
X240742Y213772D01*
X241315Y214090D01*
X241896Y214393D01*
X242485Y214682D01*
X243080Y214957D01*
X243682Y215217D01*
X244290Y215462D01*
X244903Y215692D01*
X245522Y215907D01*
X246147Y216107D01*
X246776Y216291D01*
X247409Y216460D01*
X248046Y216614D01*
X248687Y216752D01*
X249331Y216874D01*
X249978Y216980D01*
X250627Y217071D01*
X251278Y217145D01*
X251931Y217204D01*
X252585Y217247D01*
X253240Y217273D01*
X253895Y217284D01*
X254551Y217278D01*
X255206Y217257D01*
X255860Y217219D01*
X256514Y217166D01*
X257165Y217096D01*
X257815Y217011D01*
X258463Y216910D01*
X259108Y216792D01*
X259750Y216660D01*
X260388Y216511D01*
X261023Y216347D01*
X261653Y216167D01*
X262279Y215972D01*
X262900Y215762D01*
X263515Y215537D01*
X264125Y215296D01*
X264729Y215041D01*
X265326Y214771D01*
X265917Y214487D01*
X266500Y214188D01*
X267076Y213875D01*
X267644Y213548D01*
X268204Y213207D01*
X268755Y212853D01*
X269298Y212485D01*
X269831Y212104D01*
X270355Y211711D01*
X270869Y211304D01*
X271373Y210885D01*
X271867Y210454D01*
X272350Y210010D01*
X272822Y209556D01*
X273283Y209089D01*
X273732Y208612D01*
X274169Y208124D01*
X274594Y207625D01*
X275007Y207116D01*
X275407Y206597D01*
X275795Y206068D01*
X276169Y205530D01*
X276531Y204983D01*
X276878Y204427D01*
X277212Y203863D01*
X277532Y203291D01*
X277838Y202712D01*
X278130Y202125D01*
X278407Y201531D01*
X278670Y200930D01*
X278918Y200323D01*
X279150Y199711D01*
X279368Y199092D01*
X279571Y198469D01*
X279434Y198427D01*
X279233Y199047D01*
X279016Y199662D01*
X278784Y200271D01*
X278538Y200875D01*
X278277Y201472D01*
X278001Y202063D01*
X277711Y202647D01*
X277406Y203223D01*
X277088Y203792D01*
X276756Y204353D01*
X276410Y204906D01*
X276051Y205450D01*
X275678Y205985D01*
X275293Y206511D01*
X274895Y207027D01*
X274484Y207534D01*
X274061Y208030D01*
X273626Y208515D01*
X273180Y208990D01*
X272721Y209454D01*
X272252Y209906D01*
X271772Y210347D01*
X271281Y210776D01*
X270779Y211193D01*
X270268Y211597D01*
X269747Y211989D01*
X269216Y212368D01*
X268677Y212734D01*
X268128Y213086D01*
X267571Y213425D01*
X267006Y213750D01*
X266433Y214062D01*
X265853Y214359D01*
X265266Y214642D01*
X264671Y214910D01*
X264071Y215164D01*
X263464Y215403D01*
X262852Y215627D01*
X262235Y215836D01*
X261612Y216030D01*
X260985Y216209D01*
X260354Y216372D01*
X259719Y216520D01*
X259081Y216652D01*
X258439Y216769D01*
X257795Y216869D01*
X257149Y216954D01*
X256500Y217023D01*
X255851Y217077D01*
X255200Y217114D01*
X254548Y217135D01*
X253896Y217141D01*
X253244Y217130D01*
X252593Y217104D01*
X251942Y217061D01*
X251293Y217003D01*
X250645Y216929D01*
X249999Y216839D01*
X249356Y216733D01*
X248716Y216612D01*
X248078Y216475D01*
X247444Y216322D01*
X246814Y216154D01*
X246189Y215970D01*
X245568Y215771D01*
X244952Y215557D01*
X244342Y215329D01*
X243737Y215085D01*
X243138Y214826D01*
X242546Y214553D01*
X241961Y214266D01*
X241383Y213964D01*
X240813Y213648D01*
X240250Y213319D01*
X239696Y212975D01*
X239150Y212619D01*
X238614Y212249D01*
X238086Y211866D01*
X237568Y211470D01*
X237657Y211358D01*
X238172Y211751D01*
X238697Y212132D01*
X239230Y212500D01*
X239773Y212855D01*
X240325Y213196D01*
X240884Y213524D01*
X241451Y213838D01*
X242026Y214138D01*
X242608Y214424D01*
X243197Y214696D01*
X243792Y214953D01*
X244394Y215195D01*
X245001Y215423D01*
X245613Y215636D01*
X246231Y215834D01*
X246853Y216016D01*
X247480Y216183D01*
X248110Y216335D01*
X248744Y216472D01*
X249381Y216592D01*
X250021Y216698D01*
X250663Y216787D01*
X251308Y216861D01*
X251953Y216919D01*
X252600Y216961D01*
X253248Y216987D01*
X253897Y216998D01*
X254545Y216992D01*
X255193Y216971D01*
X255841Y216934D01*
X256487Y216881D01*
X257132Y216812D01*
X257775Y216728D01*
X258415Y216628D01*
X259053Y216512D01*
X259688Y216380D01*
X260320Y216233D01*
X260948Y216071D01*
X261571Y215893D01*
X262190Y215700D01*
X262805Y215492D01*
X263414Y215270D01*
X264017Y215032D01*
X264614Y214779D01*
X265205Y214512D01*
X265789Y214231D01*
X266366Y213935D01*
X266936Y213626D01*
X267498Y213302D01*
X268052Y212965D01*
X268598Y212615D01*
X269134Y212251D01*
X269662Y211874D01*
X270180Y211484D01*
X270689Y211082D01*
X271188Y210667D01*
X271676Y210241D01*
X272154Y209802D01*
X272621Y209352D01*
X273076Y208891D01*
X273521Y208419D01*
X273953Y207936D01*
X274374Y207442D01*
X274783Y206939D01*
X275179Y206425D01*
X275562Y205902D01*
X275932Y205370D01*
X276290Y204829D01*
X276634Y204279D01*
X276964Y203721D01*
X277281Y203155D01*
X277583Y202582D01*
X277872Y202001D01*
X278146Y201414D01*
X278406Y200819D01*
X278651Y200219D01*
X278882Y199613D01*
X279097Y199001D01*
X279298Y198385D01*
X279161Y198343D01*
X278962Y198956D01*
X278747Y199564D01*
X278518Y200167D01*
X278274Y200764D01*
X278016Y201355D01*
X277743Y201939D01*
X277456Y202517D01*
X277155Y203087D01*
X276840Y203650D01*
X276511Y204205D01*
X276169Y204752D01*
X275814Y205290D01*
X275445Y205819D01*
X275064Y206339D01*
X274670Y206850D01*
X274264Y207351D01*
X273846Y207842D01*
X273415Y208322D01*
X272973Y208792D01*
X272520Y209251D01*
X272056Y209698D01*
X271581Y210134D01*
X271095Y210559D01*
X270599Y210971D01*
X270093Y211371D01*
X269577Y211759D01*
X269053Y212133D01*
X268519Y212495D01*
X267976Y212844D01*
X267425Y213179D01*
X266866Y213501D01*
X266300Y213809D01*
X265726Y214103D01*
X265145Y214383D01*
X264557Y214648D01*
X263963Y214899D01*
X263363Y215136D01*
X262757Y215358D01*
X262146Y215564D01*
X261530Y215756D01*
X260910Y215933D01*
X260286Y216094D01*
X259658Y216241D01*
X259026Y216371D01*
X258392Y216487D01*
X257754Y216586D01*
X257115Y216670D01*
X256474Y216739D01*
X255831Y216791D01*
X255187Y216828D01*
X254542Y216849D01*
X253897Y216855D01*
X253253Y216844D01*
X252608Y216818D01*
X251965Y216776D01*
X251322Y216719D01*
X250682Y216645D01*
X250043Y216556D01*
X249406Y216452D01*
X248773Y216331D01*
X248142Y216196D01*
X247515Y216045D01*
X246892Y215878D01*
X246273Y215697D01*
X245659Y215500D01*
X245050Y215289D01*
X244446Y215062D01*
X243848Y214821D01*
X243256Y214565D01*
X242670Y214295D01*
X242091Y214011D01*
X241519Y213712D01*
X240955Y213400D01*
X240399Y213074D01*
X239850Y212735D01*
X239311Y212382D01*
X238779Y212016D01*
X238258Y211637D01*
X237745Y211245D01*
X237834Y211133D01*
X238343Y211522D01*
X238862Y211899D01*
X239391Y212263D01*
X239927Y212614D01*
X240473Y212952D01*
X241026Y213276D01*
X241587Y213587D01*
X242156Y213884D01*
X242732Y214166D01*
X243314Y214435D01*
X243903Y214689D01*
X244498Y214929D01*
X245099Y215154D01*
X245704Y215365D01*
X246315Y215560D01*
X246931Y215741D01*
X247551Y215906D01*
X248174Y216056D01*
X248801Y216191D01*
X249431Y216311D01*
X250064Y216415D01*
X250700Y216503D01*
X251337Y216576D01*
X251976Y216634D01*
X252616Y216675D01*
X253257Y216701D01*
X253898Y216712D01*
X254540Y216706D01*
X255181Y216685D01*
X255821Y216649D01*
X256460Y216596D01*
X257098Y216528D01*
X257734Y216445D01*
X258368Y216346D01*
X258999Y216231D01*
X259627Y216101D01*
X260252Y215956D01*
X260873Y215795D01*
X261490Y215619D01*
X262102Y215428D01*
X262710Y215223D01*
X263312Y215002D01*
X263909Y214767D01*
X264500Y214517D01*
X265084Y214253D01*
X265662Y213975D01*
X266233Y213682D01*
X266796Y213376D01*
X267352Y213056D01*
X267900Y212723D01*
X268440Y212376D01*
X268971Y212016D01*
X269493Y211643D01*
X270006Y211258D01*
X270509Y210860D01*
X271002Y210450D01*
X271485Y210028D01*
X271958Y209594D01*
X272419Y209149D01*
X272870Y208693D01*
X273310Y208226D01*
X273738Y207748D01*
X274154Y207260D01*
X274558Y206762D01*
X274950Y206254D01*
X275329Y205736D01*
X275695Y205210D01*
X276049Y204675D01*
X276389Y204131D01*
X276716Y203579D01*
X277029Y203019D01*
X277328Y202452D01*
X277614Y201878D01*
X277885Y201296D01*
X278142Y200709D01*
X278385Y200115D01*
X278613Y199515D01*
X278826Y198910D01*
X279024Y198300D01*
X278888Y198258D01*
X278691Y198865D01*
X278478Y199467D01*
X278252Y200063D01*
X278010Y200653D01*
X277755Y201238D01*
X277485Y201816D01*
X277201Y202387D01*
X276903Y202951D01*
X276592Y203508D01*
X276267Y204057D01*
X275928Y204598D01*
X275577Y205130D01*
X275212Y205654D01*
X274835Y206168D01*
X274446Y206673D01*
X274044Y207169D01*
X273630Y207654D01*
X273204Y208129D01*
X272767Y208594D01*
X272319Y209048D01*
X271860Y209490D01*
X271389Y209922D01*
X270909Y210341D01*
X270419Y210749D01*
X269918Y211145D01*
X269408Y211528D01*
X268889Y211899D01*
X268361Y212257D01*
X267824Y212602D01*
X267279Y212933D01*
X266727Y213251D01*
X266166Y213556D01*
X265598Y213847D01*
X265024Y214124D01*
X264442Y214386D01*
X263855Y214635D01*
X263261Y214869D01*
X262662Y215088D01*
X262058Y215292D01*
X261449Y215482D01*
X260835Y215657D01*
X260218Y215817D01*
X259596Y215961D01*
X258972Y216091D01*
X258344Y216205D01*
X257714Y216303D01*
X257081Y216386D01*
X256447Y216454D01*
X255811Y216506D01*
X255174Y216543D01*
X254537Y216563D01*
X253899Y216569D01*
X253261Y216559D01*
X252624Y216533D01*
X251987Y216491D01*
X251352Y216434D01*
X250718Y216362D01*
X250086Y216274D01*
X249457Y216170D01*
X248830Y216051D01*
X248206Y215917D01*
X247586Y215768D01*
X246970Y215603D01*
X246358Y215424D01*
X245750Y215229D01*
X245147Y215020D01*
X244550Y214796D01*
X243958Y214557D01*
X243373Y214305D01*
X242793Y214037D01*
X242221Y213756D01*
X241655Y213461D01*
X241097Y213152D01*
X240547Y212829D01*
X240005Y212494D01*
X239471Y212145D01*
X238945Y211783D01*
X238429Y211408D01*
X237922Y211021D01*
X237125Y168969D02*
X237975Y170047D01*
X237974Y170046D02*
X238480Y169660D01*
X238994Y169287D01*
X239518Y168926D01*
X240050Y168578D01*
X240590Y168243D01*
X241139Y167922D01*
X241695Y167614D01*
X242259Y167320D01*
X242830Y167040D01*
X243407Y166773D01*
X243991Y166521D01*
X244581Y166283D01*
X245176Y166060D01*
X245777Y165852D01*
X246382Y165658D01*
X246992Y165479D01*
X247607Y165315D01*
X248225Y165166D01*
X248846Y165032D01*
X249471Y164914D01*
X250099Y164811D01*
X250728Y164723D01*
X251360Y164650D01*
X251993Y164594D01*
X252628Y164552D01*
X253263Y164526D01*
X253899Y164516D01*
X254535Y164522D01*
X255170Y164542D01*
X255805Y164579D01*
X256439Y164631D01*
X257071Y164698D01*
X257701Y164781D01*
X258329Y164879D01*
X258955Y164993D01*
X259578Y165122D01*
X260197Y165266D01*
X260813Y165425D01*
X261424Y165599D01*
X262031Y165788D01*
X262633Y165992D01*
X263231Y166211D01*
X263822Y166444D01*
X264408Y166691D01*
X264987Y166953D01*
X265560Y167229D01*
X266126Y167519D01*
X266685Y167823D01*
X267236Y168140D01*
X267779Y168470D01*
X268314Y168814D01*
X268840Y169171D01*
X269358Y169540D01*
X269866Y169922D01*
X270365Y170317D01*
X270854Y170723D01*
X271332Y171141D01*
X271801Y171571D01*
X272259Y172013D01*
X272706Y172465D01*
X273141Y172928D01*
X273566Y173402D01*
X273978Y173885D01*
X274379Y174379D01*
X274767Y174883D01*
X275143Y175396D01*
X275506Y175917D01*
X275857Y176448D01*
X276194Y176987D01*
X276518Y177534D01*
X276828Y178089D01*
X277125Y178651D01*
X277408Y179221D01*
X277677Y179797D01*
X277932Y180379D01*
X278172Y180968D01*
X278398Y181562D01*
X278610Y182162D01*
X278806Y182767D01*
X280117Y182363D01*
X280118Y182362D01*
X279911Y181725D01*
X279688Y181094D01*
X279450Y180468D01*
X279197Y179848D01*
X278929Y179235D01*
X278646Y178628D01*
X278348Y178029D01*
X278035Y177436D01*
X277708Y176852D01*
X277367Y176276D01*
X277012Y175708D01*
X276643Y175150D01*
X276261Y174600D01*
X275865Y174060D01*
X275456Y173530D01*
X275035Y173010D01*
X274600Y172500D01*
X274154Y172002D01*
X273695Y171514D01*
X273224Y171038D01*
X272742Y170573D01*
X272249Y170120D01*
X271745Y169680D01*
X271230Y169252D01*
X270705Y168837D01*
X270170Y168434D01*
X269625Y168045D01*
X269071Y167670D01*
X268507Y167308D01*
X267935Y166960D01*
X267355Y166626D01*
X266767Y166306D01*
X266171Y166001D01*
X265568Y165710D01*
X264958Y165435D01*
X264341Y165174D01*
X263718Y164928D01*
X263089Y164698D01*
X262455Y164483D01*
X261816Y164284D01*
X261172Y164101D01*
X260524Y163933D01*
X259872Y163782D01*
X259216Y163646D01*
X258558Y163526D01*
X257896Y163423D01*
X257232Y163336D01*
X256567Y163265D01*
X255899Y163210D01*
X255231Y163172D01*
X254562Y163150D01*
X253892Y163144D01*
X253223Y163155D01*
X252554Y163182D01*
X251886Y163226D01*
X251219Y163286D01*
X250554Y163362D01*
X249891Y163454D01*
X249230Y163563D01*
X248572Y163688D01*
X247918Y163829D01*
X247267Y163986D01*
X246620Y164158D01*
X245978Y164347D01*
X245340Y164551D01*
X244707Y164771D01*
X244081Y165006D01*
X243460Y165256D01*
X242845Y165522D01*
X242237Y165802D01*
X241636Y166097D01*
X241043Y166407D01*
X240457Y166732D01*
X239879Y167070D01*
X239310Y167423D01*
X238750Y167789D01*
X238199Y168169D01*
X237657Y168562D01*
X237125Y168969D01*
X237214Y169081D01*
X237743Y168677D01*
X238282Y168286D01*
X238830Y167908D01*
X239387Y167543D01*
X239954Y167192D01*
X240528Y166856D01*
X241111Y166533D01*
X241701Y166225D01*
X242299Y165931D01*
X242904Y165652D01*
X243515Y165388D01*
X244133Y165139D01*
X244756Y164905D01*
X245385Y164687D01*
X246020Y164483D01*
X246659Y164296D01*
X247302Y164124D01*
X247950Y163968D01*
X248601Y163828D01*
X249255Y163704D01*
X249912Y163596D01*
X250572Y163504D01*
X251234Y163428D01*
X251897Y163368D01*
X252562Y163325D01*
X253227Y163298D01*
X253893Y163287D01*
X254559Y163293D01*
X255225Y163315D01*
X255889Y163353D01*
X256553Y163407D01*
X257215Y163478D01*
X257876Y163564D01*
X258534Y163667D01*
X259189Y163786D01*
X259841Y163921D01*
X260490Y164072D01*
X261135Y164239D01*
X261775Y164421D01*
X262411Y164619D01*
X263042Y164833D01*
X263667Y165062D01*
X264287Y165306D01*
X264900Y165566D01*
X265507Y165840D01*
X266107Y166129D01*
X266700Y166432D01*
X267285Y166750D01*
X267863Y167083D01*
X268431Y167429D01*
X268992Y167789D01*
X269543Y168163D01*
X270085Y168550D01*
X270617Y168950D01*
X271140Y169363D01*
X271652Y169789D01*
X272153Y170227D01*
X272644Y170677D01*
X273124Y171139D01*
X273592Y171613D01*
X274048Y172098D01*
X274492Y172594D01*
X274924Y173101D01*
X275344Y173619D01*
X275751Y174146D01*
X276144Y174683D01*
X276525Y175230D01*
X276892Y175786D01*
X277245Y176350D01*
X277584Y176923D01*
X277909Y177504D01*
X278220Y178093D01*
X278517Y178690D01*
X278798Y179293D01*
X279065Y179904D01*
X279317Y180520D01*
X279554Y181143D01*
X279775Y181771D01*
X279981Y182404D01*
X279844Y182446D01*
X279639Y181816D01*
X279419Y181191D01*
X279184Y180572D01*
X278933Y179959D01*
X278668Y179352D01*
X278388Y178752D01*
X278093Y178158D01*
X277784Y177572D01*
X277460Y176994D01*
X277123Y176424D01*
X276771Y175863D01*
X276406Y175310D01*
X276028Y174766D01*
X275636Y174232D01*
X275232Y173707D01*
X274814Y173192D01*
X274385Y172688D01*
X273943Y172195D01*
X273489Y171712D01*
X273023Y171241D01*
X272546Y170781D01*
X272058Y170333D01*
X271559Y169897D01*
X271050Y169474D01*
X270530Y169063D01*
X270000Y168665D01*
X269461Y168280D01*
X268913Y167908D01*
X268356Y167550D01*
X267790Y167206D01*
X267215Y166875D01*
X266633Y166559D01*
X266044Y166257D01*
X265447Y165969D01*
X264843Y165697D01*
X264233Y165439D01*
X263617Y165196D01*
X262994Y164968D01*
X262367Y164755D01*
X261734Y164558D01*
X261097Y164377D01*
X260456Y164211D01*
X259811Y164061D01*
X259162Y163927D01*
X258510Y163808D01*
X257855Y163706D01*
X257199Y163620D01*
X256540Y163549D01*
X255880Y163495D01*
X255218Y163457D01*
X254556Y163436D01*
X253894Y163430D01*
X253231Y163441D01*
X252569Y163468D01*
X251908Y163511D01*
X251248Y163570D01*
X250590Y163646D01*
X249934Y163737D01*
X249280Y163845D01*
X248629Y163968D01*
X247982Y164107D01*
X247338Y164263D01*
X246698Y164434D01*
X246062Y164620D01*
X245431Y164822D01*
X244805Y165039D01*
X244185Y165272D01*
X243570Y165520D01*
X242962Y165783D01*
X242361Y166060D01*
X241766Y166352D01*
X241179Y166659D01*
X240599Y166980D01*
X240028Y167315D01*
X239464Y167664D01*
X238910Y168026D01*
X238365Y168402D01*
X237828Y168791D01*
X237302Y169194D01*
X237391Y169306D01*
X237914Y168906D01*
X238447Y168519D01*
X238990Y168145D01*
X239542Y167784D01*
X240102Y167437D01*
X240670Y167104D01*
X241247Y166785D01*
X241831Y166480D01*
X242422Y166189D01*
X243021Y165913D01*
X243626Y165652D01*
X244237Y165405D01*
X244854Y165174D01*
X245476Y164958D01*
X246104Y164757D01*
X246736Y164571D01*
X247373Y164401D01*
X248014Y164247D01*
X248658Y164108D01*
X249305Y163985D01*
X249956Y163878D01*
X250608Y163787D01*
X251263Y163712D01*
X251919Y163654D01*
X252577Y163611D01*
X253235Y163584D01*
X253894Y163573D01*
X254553Y163579D01*
X255212Y163600D01*
X255870Y163638D01*
X256527Y163692D01*
X257182Y163762D01*
X257835Y163848D01*
X258486Y163949D01*
X259135Y164067D01*
X259780Y164201D01*
X260422Y164350D01*
X261060Y164515D01*
X261694Y164695D01*
X262323Y164891D01*
X262947Y165103D01*
X263566Y165329D01*
X264179Y165571D01*
X264786Y165828D01*
X265386Y166099D01*
X265980Y166385D01*
X266567Y166685D01*
X267146Y167000D01*
X267717Y167329D01*
X268280Y167671D01*
X268834Y168027D01*
X269379Y168397D01*
X269916Y168780D01*
X270442Y169176D01*
X270959Y169585D01*
X271466Y170006D01*
X271962Y170440D01*
X272448Y170885D01*
X272922Y171343D01*
X273386Y171811D01*
X273837Y172291D01*
X274277Y172782D01*
X274704Y173284D01*
X275119Y173796D01*
X275522Y174317D01*
X275911Y174849D01*
X276288Y175390D01*
X276651Y175940D01*
X277000Y176498D01*
X277336Y177065D01*
X277658Y177640D01*
X277965Y178223D01*
X278259Y178813D01*
X278537Y179411D01*
X278801Y180014D01*
X279051Y180624D01*
X279285Y181240D01*
X279504Y181862D01*
X279708Y182489D01*
X279571Y182531D01*
X279368Y181907D01*
X279150Y181289D01*
X278917Y180676D01*
X278670Y180070D01*
X278407Y179469D01*
X278130Y178875D01*
X277838Y178288D01*
X277532Y177708D01*
X277212Y177136D01*
X276878Y176572D01*
X276530Y176017D01*
X276169Y175470D01*
X275795Y174932D01*
X275407Y174403D01*
X275007Y173884D01*
X274594Y173375D01*
X274169Y172876D01*
X273732Y172388D01*
X273282Y171910D01*
X272822Y171444D01*
X272350Y170989D01*
X271867Y170546D01*
X271373Y170115D01*
X270869Y169696D01*
X270355Y169289D01*
X269831Y168895D01*
X269298Y168514D01*
X268755Y168147D01*
X268204Y167792D01*
X267644Y167452D01*
X267076Y167125D01*
X266500Y166812D01*
X265916Y166513D01*
X265326Y166228D01*
X264728Y165959D01*
X264125Y165703D01*
X263515Y165463D01*
X262899Y165238D01*
X262278Y165027D01*
X261653Y164833D01*
X261022Y164653D01*
X260388Y164489D01*
X259749Y164340D01*
X259107Y164207D01*
X258462Y164090D01*
X257815Y163989D01*
X257165Y163904D01*
X256513Y163834D01*
X255860Y163781D01*
X255206Y163743D01*
X254550Y163722D01*
X253895Y163716D01*
X253240Y163727D01*
X252585Y163753D01*
X251931Y163796D01*
X251278Y163855D01*
X250627Y163929D01*
X249977Y164020D01*
X249331Y164126D01*
X248687Y164248D01*
X248046Y164386D01*
X247408Y164540D01*
X246775Y164709D01*
X246146Y164893D01*
X245522Y165093D01*
X244903Y165308D01*
X244289Y165538D01*
X243681Y165784D01*
X243079Y166043D01*
X242484Y166318D01*
X241896Y166607D01*
X241315Y166910D01*
X240741Y167228D01*
X240176Y167559D01*
X239619Y167904D01*
X239070Y168263D01*
X238530Y168635D01*
X238000Y169020D01*
X237479Y169418D01*
X237568Y169531D01*
X238086Y169135D01*
X238613Y168752D01*
X239150Y168382D01*
X239696Y168025D01*
X240250Y167682D01*
X240812Y167352D01*
X241383Y167036D01*
X241961Y166734D01*
X242546Y166447D01*
X243138Y166174D01*
X243736Y165915D01*
X244341Y165672D01*
X244952Y165443D01*
X245567Y165229D01*
X246188Y165030D01*
X246814Y164846D01*
X247444Y164678D01*
X248078Y164526D01*
X248715Y164388D01*
X249356Y164267D01*
X249999Y164161D01*
X250645Y164071D01*
X251292Y163997D01*
X251942Y163939D01*
X252592Y163896D01*
X253244Y163870D01*
X253896Y163859D01*
X254548Y163865D01*
X255199Y163886D01*
X255850Y163923D01*
X256500Y163977D01*
X257148Y164046D01*
X257795Y164131D01*
X258439Y164231D01*
X259080Y164348D01*
X259719Y164480D01*
X260354Y164628D01*
X260985Y164791D01*
X261612Y164970D01*
X262234Y165163D01*
X262852Y165373D01*
X263464Y165597D01*
X264071Y165836D01*
X264671Y166090D01*
X265265Y166358D01*
X265853Y166641D01*
X266433Y166938D01*
X267006Y167249D01*
X267571Y167575D01*
X268128Y167914D01*
X268676Y168266D01*
X269216Y168632D01*
X269746Y169011D01*
X270268Y169402D01*
X270779Y169807D01*
X271280Y170224D01*
X271771Y170653D01*
X272252Y171093D01*
X272721Y171546D01*
X273179Y172010D01*
X273626Y172484D01*
X274061Y172970D01*
X274484Y173466D01*
X274895Y173973D01*
X275293Y174489D01*
X275678Y175015D01*
X276051Y175550D01*
X276410Y176094D01*
X276756Y176647D01*
X277088Y177208D01*
X277406Y177776D01*
X277711Y178353D01*
X278001Y178937D01*
X278277Y179528D01*
X278538Y180125D01*
X278784Y180729D01*
X279016Y181338D01*
X279233Y181953D01*
X279434Y182573D01*
X279298Y182615D01*
X279097Y181998D01*
X278882Y181387D01*
X278651Y180781D01*
X278406Y180180D01*
X278146Y179586D01*
X277872Y178999D01*
X277583Y178418D01*
X277280Y177844D01*
X276964Y177279D01*
X276633Y176721D01*
X276289Y176171D01*
X275932Y175630D01*
X275562Y175098D01*
X275178Y174575D01*
X274782Y174061D01*
X274374Y173557D01*
X273953Y173064D01*
X273521Y172581D01*
X273076Y172109D01*
X272620Y171647D01*
X272154Y171197D01*
X271676Y170759D01*
X271187Y170332D01*
X270689Y169918D01*
X270180Y169516D01*
X269662Y169126D01*
X269134Y168749D01*
X268597Y168385D01*
X268052Y168035D01*
X267498Y167698D01*
X266936Y167374D01*
X266366Y167064D01*
X265789Y166769D01*
X265205Y166488D01*
X264614Y166221D01*
X264017Y165968D01*
X263413Y165730D01*
X262804Y165507D01*
X262190Y165299D01*
X261571Y165107D01*
X260947Y164929D01*
X260320Y164767D01*
X259688Y164620D01*
X259053Y164488D01*
X258415Y164372D01*
X257774Y164272D01*
X257131Y164188D01*
X256487Y164119D01*
X255840Y164066D01*
X255193Y164029D01*
X254545Y164008D01*
X253896Y164002D01*
X253248Y164013D01*
X252600Y164039D01*
X251953Y164081D01*
X251307Y164139D01*
X250663Y164213D01*
X250021Y164303D01*
X249381Y164408D01*
X248744Y164529D01*
X248110Y164665D01*
X247479Y164817D01*
X246853Y164984D01*
X246231Y165167D01*
X245613Y165364D01*
X245000Y165577D01*
X244393Y165805D01*
X243792Y166047D01*
X243197Y166304D01*
X242608Y166576D01*
X242026Y166862D01*
X241451Y167162D01*
X240884Y167476D01*
X240324Y167804D01*
X239773Y168145D01*
X239230Y168500D01*
X238696Y168868D01*
X238171Y169249D01*
X237656Y169643D01*
X237745Y169755D01*
X238257Y169364D01*
X238779Y168985D01*
X239310Y168619D01*
X239850Y168266D01*
X240398Y167926D01*
X240955Y167600D01*
X241519Y167288D01*
X242091Y166989D01*
X242669Y166705D01*
X243255Y166435D01*
X243847Y166179D01*
X244445Y165938D01*
X245049Y165711D01*
X245659Y165500D01*
X246273Y165303D01*
X246892Y165122D01*
X247515Y164955D01*
X248142Y164804D01*
X248772Y164669D01*
X249406Y164549D01*
X250042Y164444D01*
X250681Y164355D01*
X251322Y164281D01*
X251964Y164224D01*
X252608Y164182D01*
X253252Y164156D01*
X253897Y164145D01*
X254542Y164151D01*
X255187Y164172D01*
X255830Y164209D01*
X256473Y164261D01*
X257115Y164330D01*
X257754Y164414D01*
X258391Y164513D01*
X259026Y164629D01*
X259657Y164759D01*
X260285Y164905D01*
X260910Y165067D01*
X261530Y165244D01*
X262146Y165435D01*
X262757Y165642D01*
X263362Y165864D01*
X263962Y166100D01*
X264556Y166352D01*
X265144Y166617D01*
X265725Y166897D01*
X266299Y167191D01*
X266866Y167499D01*
X267425Y167821D01*
X267976Y168156D01*
X268518Y168505D01*
X269052Y168866D01*
X269577Y169241D01*
X270093Y169629D01*
X270599Y170029D01*
X271095Y170441D01*
X271580Y170865D01*
X272055Y171301D01*
X272520Y171749D01*
X272973Y172208D01*
X273415Y172678D01*
X273845Y173158D01*
X274264Y173649D01*
X274670Y174150D01*
X275064Y174660D01*
X275445Y175180D01*
X275814Y175710D01*
X276169Y176248D01*
X276511Y176795D01*
X276840Y177350D01*
X277155Y177912D01*
X277456Y178483D01*
X277743Y179060D01*
X278016Y179645D01*
X278274Y180236D01*
X278518Y180833D01*
X278747Y181436D01*
X278962Y182044D01*
X279161Y182657D01*
X279024Y182699D01*
X278826Y182089D01*
X278613Y181484D01*
X278385Y180885D01*
X278142Y180291D01*
X277885Y179703D01*
X277614Y179122D01*
X277328Y178548D01*
X277029Y177980D01*
X276716Y177421D01*
X276389Y176869D01*
X276049Y176325D01*
X275695Y175790D01*
X275329Y175263D01*
X274949Y174746D01*
X274558Y174238D01*
X274154Y173740D01*
X273738Y173252D01*
X273310Y172774D01*
X272870Y172307D01*
X272419Y171851D01*
X271957Y171405D01*
X271485Y170972D01*
X271002Y170550D01*
X270508Y170140D01*
X270005Y169742D01*
X269493Y169356D01*
X268971Y168984D01*
X268440Y168624D01*
X267900Y168277D01*
X267352Y167944D01*
X266796Y167624D01*
X266233Y167317D01*
X265662Y167025D01*
X265084Y166747D01*
X264499Y166483D01*
X263908Y166233D01*
X263312Y165998D01*
X262709Y165777D01*
X262102Y165571D01*
X261489Y165381D01*
X260872Y165205D01*
X260251Y165044D01*
X259627Y164899D01*
X258999Y164769D01*
X258367Y164654D01*
X257734Y164555D01*
X257098Y164472D01*
X256460Y164404D01*
X255821Y164351D01*
X255180Y164315D01*
X254539Y164294D01*
X253898Y164288D01*
X253256Y164299D01*
X252615Y164325D01*
X251975Y164366D01*
X251337Y164424D01*
X250699Y164497D01*
X250064Y164585D01*
X249431Y164689D01*
X248801Y164809D01*
X248174Y164944D01*
X247550Y165094D01*
X246930Y165259D01*
X246315Y165440D01*
X245704Y165635D01*
X245098Y165846D01*
X244497Y166071D01*
X243903Y166311D01*
X243314Y166565D01*
X242731Y166834D01*
X242156Y167117D01*
X241587Y167414D01*
X241026Y167724D01*
X240472Y168048D01*
X239927Y168386D01*
X239390Y168737D01*
X238862Y169101D01*
X238343Y169478D01*
X237833Y169867D01*
X237922Y169980D01*
X238429Y169592D01*
X238945Y169218D01*
X239470Y168856D01*
X240004Y168507D01*
X240546Y168171D01*
X241097Y167848D01*
X241655Y167539D01*
X242220Y167244D01*
X242793Y166963D01*
X243372Y166696D01*
X243958Y166443D01*
X244550Y166204D01*
X245147Y165980D01*
X245750Y165771D01*
X246357Y165577D01*
X246969Y165397D01*
X247586Y165232D01*
X248206Y165083D01*
X248829Y164949D01*
X249456Y164830D01*
X250086Y164727D01*
X250717Y164638D01*
X251351Y164566D01*
X251987Y164509D01*
X252623Y164467D01*
X253261Y164441D01*
X253898Y164431D01*
X254536Y164437D01*
X255174Y164457D01*
X255811Y164494D01*
X256447Y164546D01*
X257081Y164614D01*
X257713Y164697D01*
X258344Y164795D01*
X258971Y164909D01*
X259596Y165039D01*
X260217Y165183D01*
X260835Y165343D01*
X261448Y165518D01*
X262057Y165707D01*
X262662Y165912D01*
X263261Y166131D01*
X263854Y166365D01*
X264442Y166614D01*
X265023Y166876D01*
X265598Y167153D01*
X266166Y167444D01*
X266726Y167748D01*
X267279Y168067D01*
X267824Y168398D01*
X268361Y168743D01*
X268889Y169101D01*
X269408Y169472D01*
X269918Y169855D01*
X270418Y170251D01*
X270909Y170659D01*
X271389Y171078D01*
X271859Y171509D01*
X272319Y171952D01*
X272767Y172406D01*
X273204Y172871D01*
X273630Y173346D01*
X274044Y173831D01*
X274445Y174327D01*
X274835Y174832D01*
X275212Y175346D01*
X275577Y175870D01*
X275928Y176402D01*
X276267Y176943D01*
X276592Y177492D01*
X276903Y178049D01*
X277201Y178613D01*
X277485Y179184D01*
X277755Y179762D01*
X278010Y180346D01*
X278252Y180937D01*
X278478Y181533D01*
X278690Y182135D01*
X278888Y182741D01*
D10*
X237490Y169555D02*
X237490Y211445D01*
X251460Y213037D02*
X251460Y217049D01*
X251460Y193363D02*
X251460Y187637D01*
X251460Y167963D02*
X251460Y163951D01*
D11*
X264160Y140704D02*
X269240Y140704D01*
X264160Y140704D02*
X264049Y140706D01*
X263939Y140712D01*
X263828Y140721D01*
X263718Y140735D01*
X263609Y140752D01*
X263500Y140773D01*
X263392Y140798D01*
X263285Y140827D01*
X263179Y140859D01*
X263074Y140895D01*
X262971Y140935D01*
X262869Y140978D01*
X262768Y141025D01*
X262669Y141076D01*
X262573Y141129D01*
X262478Y141186D01*
X262385Y141247D01*
X262294Y141310D01*
X262205Y141377D01*
X262119Y141447D01*
X262036Y141520D01*
X261954Y141595D01*
X261876Y141673D01*
X261801Y141755D01*
X261728Y141838D01*
X261658Y141924D01*
X261591Y142013D01*
X261528Y142104D01*
X261467Y142197D01*
X261410Y142292D01*
X261357Y142388D01*
X261306Y142487D01*
X261259Y142588D01*
X261216Y142690D01*
X261176Y142793D01*
X261140Y142898D01*
X261108Y143004D01*
X261079Y143111D01*
X261054Y143219D01*
X261033Y143328D01*
X261016Y143437D01*
X261002Y143547D01*
X260993Y143658D01*
X260987Y143768D01*
X260985Y143879D01*
X260987Y143990D01*
X260993Y144100D01*
X261002Y144211D01*
X261016Y144321D01*
X261033Y144430D01*
X261054Y144539D01*
X261079Y144647D01*
X261108Y144754D01*
X261140Y144860D01*
X261176Y144965D01*
X261216Y145068D01*
X261259Y145170D01*
X261306Y145271D01*
X261357Y145370D01*
X261410Y145467D01*
X261467Y145561D01*
X261528Y145654D01*
X261591Y145745D01*
X261658Y145834D01*
X261728Y145920D01*
X261801Y146003D01*
X261876Y146085D01*
X261954Y146163D01*
X262036Y146238D01*
X262119Y146311D01*
X262205Y146381D01*
X262294Y146448D01*
X262385Y146511D01*
X262478Y146572D01*
X262573Y146629D01*
X262669Y146682D01*
X262768Y146733D01*
X262869Y146780D01*
X262971Y146823D01*
X263074Y146863D01*
X263179Y146899D01*
X263285Y146931D01*
X263392Y146960D01*
X263500Y146985D01*
X263609Y147006D01*
X263718Y147023D01*
X263828Y147037D01*
X263939Y147046D01*
X264049Y147052D01*
X264160Y147054D01*
X269240Y147054D01*
X269351Y147052D01*
X269461Y147046D01*
X269572Y147037D01*
X269682Y147023D01*
X269791Y147006D01*
X269900Y146985D01*
X270008Y146960D01*
X270115Y146931D01*
X270221Y146899D01*
X270326Y146863D01*
X270429Y146823D01*
X270531Y146780D01*
X270632Y146733D01*
X270731Y146682D01*
X270828Y146629D01*
X270922Y146572D01*
X271015Y146511D01*
X271106Y146448D01*
X271195Y146381D01*
X271281Y146311D01*
X271364Y146238D01*
X271446Y146163D01*
X271524Y146085D01*
X271599Y146003D01*
X271672Y145920D01*
X271742Y145834D01*
X271809Y145745D01*
X271872Y145654D01*
X271933Y145561D01*
X271990Y145466D01*
X272043Y145370D01*
X272094Y145271D01*
X272141Y145170D01*
X272184Y145068D01*
X272224Y144965D01*
X272260Y144860D01*
X272292Y144754D01*
X272321Y144647D01*
X272346Y144539D01*
X272367Y144430D01*
X272384Y144321D01*
X272398Y144211D01*
X272407Y144100D01*
X272413Y143990D01*
X272415Y143879D01*
X272413Y143768D01*
X272407Y143658D01*
X272398Y143547D01*
X272384Y143437D01*
X272367Y143328D01*
X272346Y143219D01*
X272321Y143111D01*
X272292Y143004D01*
X272260Y142898D01*
X272224Y142793D01*
X272184Y142690D01*
X272141Y142588D01*
X272094Y142487D01*
X272043Y142388D01*
X271990Y142291D01*
X271933Y142197D01*
X271872Y142104D01*
X271809Y142013D01*
X271742Y141924D01*
X271672Y141838D01*
X271599Y141755D01*
X271524Y141673D01*
X271446Y141595D01*
X271364Y141520D01*
X271281Y141447D01*
X271195Y141377D01*
X271106Y141310D01*
X271015Y141247D01*
X270922Y141186D01*
X270828Y141129D01*
X270731Y141076D01*
X270632Y141025D01*
X270531Y140978D01*
X270429Y140935D01*
X270326Y140895D01*
X270221Y140859D01*
X270115Y140827D01*
X270008Y140798D01*
X269900Y140773D01*
X269791Y140752D01*
X269682Y140735D01*
X269572Y140721D01*
X269461Y140712D01*
X269351Y140706D01*
X269240Y140704D01*
X269875Y145784D02*
X272415Y148324D01*
X263843Y158116D02*
X263739Y158114D01*
X263634Y158108D01*
X263530Y158099D01*
X263427Y158086D01*
X263324Y158068D01*
X263222Y158048D01*
X263120Y158023D01*
X263020Y157995D01*
X262920Y157963D01*
X262822Y157927D01*
X262725Y157888D01*
X262630Y157846D01*
X262536Y157800D01*
X262444Y157750D01*
X262354Y157698D01*
X262266Y157642D01*
X262180Y157582D01*
X262096Y157520D01*
X262015Y157455D01*
X261936Y157387D01*
X261859Y157315D01*
X261786Y157242D01*
X261714Y157165D01*
X261646Y157086D01*
X261581Y157005D01*
X261519Y156921D01*
X261459Y156835D01*
X261403Y156747D01*
X261351Y156657D01*
X261301Y156565D01*
X261255Y156471D01*
X261213Y156376D01*
X261174Y156279D01*
X261138Y156181D01*
X261106Y156081D01*
X261078Y155981D01*
X261053Y155879D01*
X261033Y155777D01*
X261015Y155674D01*
X261002Y155571D01*
X260993Y155467D01*
X260987Y155362D01*
X260985Y155258D01*
X260987Y155140D01*
X260993Y155021D01*
X261002Y154903D01*
X261015Y154786D01*
X261033Y154669D01*
X261053Y154552D01*
X261078Y154436D01*
X261106Y154321D01*
X261139Y154208D01*
X261174Y154095D01*
X261214Y153983D01*
X261256Y153873D01*
X261303Y153764D01*
X261353Y153656D01*
X261406Y153551D01*
X261463Y153447D01*
X261523Y153345D01*
X261586Y153245D01*
X261653Y153147D01*
X261722Y153051D01*
X261795Y152958D01*
X261871Y152867D01*
X261949Y152778D01*
X262031Y152692D01*
X262115Y152609D01*
X262201Y152528D01*
X262291Y152451D01*
X262382Y152376D01*
X262476Y152304D01*
X262573Y152235D01*
X262671Y152170D01*
X262772Y152107D01*
X262875Y152048D01*
X262979Y151992D01*
X263085Y151940D01*
X263193Y151891D01*
X263302Y151846D01*
X263413Y151804D01*
X263525Y151766D01*
X266065Y157163D02*
X265990Y157239D01*
X265911Y157314D01*
X265830Y157385D01*
X265746Y157454D01*
X265660Y157519D01*
X265572Y157581D01*
X265482Y157641D01*
X265390Y157697D01*
X265295Y157750D01*
X265199Y157799D01*
X265101Y157845D01*
X265002Y157888D01*
X264901Y157927D01*
X264799Y157962D01*
X264696Y157994D01*
X264592Y158022D01*
X264487Y158047D01*
X264380Y158068D01*
X264274Y158085D01*
X264167Y158098D01*
X264059Y158107D01*
X263951Y158113D01*
X263843Y158115D01*
X266065Y157163D02*
X272415Y151765D01*
X272415Y158115D01*
D10*
X306070Y148590D02*
X306072Y148490D01*
X306078Y148391D01*
X306088Y148291D01*
X306101Y148193D01*
X306119Y148094D01*
X306140Y147997D01*
X306165Y147901D01*
X306194Y147805D01*
X306227Y147711D01*
X306263Y147618D01*
X306303Y147527D01*
X306347Y147437D01*
X306394Y147349D01*
X306444Y147263D01*
X306498Y147179D01*
X306555Y147097D01*
X306615Y147018D01*
X306679Y146940D01*
X306745Y146866D01*
X306814Y146794D01*
X306886Y146725D01*
X306960Y146659D01*
X307038Y146595D01*
X307117Y146535D01*
X307199Y146478D01*
X307283Y146424D01*
X307369Y146374D01*
X307457Y146327D01*
X307547Y146283D01*
X307638Y146243D01*
X307731Y146207D01*
X307825Y146174D01*
X307921Y146145D01*
X308017Y146120D01*
X308114Y146099D01*
X308213Y146081D01*
X308311Y146068D01*
X308411Y146058D01*
X308510Y146052D01*
X308610Y146050D01*
X326390Y146050D02*
X326490Y146052D01*
X326589Y146058D01*
X326689Y146068D01*
X326787Y146081D01*
X326886Y146099D01*
X326983Y146120D01*
X327079Y146145D01*
X327175Y146174D01*
X327269Y146207D01*
X327362Y146243D01*
X327453Y146283D01*
X327543Y146327D01*
X327631Y146374D01*
X327717Y146424D01*
X327801Y146478D01*
X327883Y146535D01*
X327962Y146595D01*
X328040Y146659D01*
X328114Y146725D01*
X328186Y146794D01*
X328255Y146866D01*
X328321Y146940D01*
X328385Y147018D01*
X328445Y147097D01*
X328502Y147179D01*
X328556Y147263D01*
X328606Y147349D01*
X328653Y147437D01*
X328697Y147527D01*
X328737Y147618D01*
X328773Y147711D01*
X328806Y147805D01*
X328835Y147901D01*
X328860Y147997D01*
X328881Y148094D01*
X328899Y148193D01*
X328912Y148291D01*
X328922Y148391D01*
X328928Y148490D01*
X328930Y148590D01*
X328930Y207010D02*
X328928Y207110D01*
X328922Y207209D01*
X328912Y207309D01*
X328899Y207407D01*
X328881Y207506D01*
X328860Y207603D01*
X328835Y207699D01*
X328806Y207795D01*
X328773Y207889D01*
X328737Y207982D01*
X328697Y208073D01*
X328653Y208163D01*
X328606Y208251D01*
X328556Y208337D01*
X328502Y208421D01*
X328445Y208503D01*
X328385Y208582D01*
X328321Y208660D01*
X328255Y208734D01*
X328186Y208806D01*
X328114Y208875D01*
X328040Y208941D01*
X327962Y209005D01*
X327883Y209065D01*
X327801Y209122D01*
X327717Y209176D01*
X327631Y209226D01*
X327543Y209273D01*
X327453Y209317D01*
X327362Y209357D01*
X327269Y209393D01*
X327175Y209426D01*
X327079Y209455D01*
X326983Y209480D01*
X326886Y209501D01*
X326787Y209519D01*
X326689Y209532D01*
X326589Y209542D01*
X326490Y209548D01*
X326390Y209550D01*
X308610Y209550D02*
X308510Y209548D01*
X308411Y209542D01*
X308311Y209532D01*
X308213Y209519D01*
X308114Y209501D01*
X308017Y209480D01*
X307921Y209455D01*
X307825Y209426D01*
X307731Y209393D01*
X307638Y209357D01*
X307547Y209317D01*
X307457Y209273D01*
X307369Y209226D01*
X307283Y209176D01*
X307199Y209122D01*
X307117Y209065D01*
X307038Y209005D01*
X306960Y208941D01*
X306886Y208875D01*
X306814Y208806D01*
X306745Y208734D01*
X306679Y208660D01*
X306615Y208582D01*
X306555Y208503D01*
X306498Y208421D01*
X306444Y208337D01*
X306394Y208251D01*
X306347Y208163D01*
X306303Y208073D01*
X306263Y207982D01*
X306227Y207889D01*
X306194Y207795D01*
X306165Y207699D01*
X306140Y207603D01*
X306119Y207506D01*
X306101Y207407D01*
X306088Y207309D01*
X306078Y207209D01*
X306072Y207110D01*
X306070Y207010D01*
X306070Y152400D02*
X306070Y148590D01*
X306070Y152400D02*
X307340Y153670D01*
X328930Y152400D02*
X328930Y148590D01*
X328930Y152400D02*
X327660Y153670D01*
X307340Y201930D02*
X306070Y203200D01*
X307340Y201930D02*
X307340Y153670D01*
X327660Y201930D02*
X328930Y203200D01*
X327660Y201930D02*
X327660Y153670D01*
X306070Y203200D02*
X306070Y207010D01*
X328930Y207010D02*
X328930Y203200D01*
D11*
X302895Y153035D02*
X291465Y153035D01*
X291465Y156210D01*
X291467Y156321D01*
X291473Y156431D01*
X291482Y156542D01*
X291496Y156652D01*
X291513Y156761D01*
X291534Y156870D01*
X291559Y156978D01*
X291588Y157085D01*
X291620Y157191D01*
X291656Y157296D01*
X291696Y157399D01*
X291739Y157501D01*
X291786Y157602D01*
X291837Y157701D01*
X291890Y157798D01*
X291947Y157892D01*
X292008Y157985D01*
X292071Y158076D01*
X292138Y158165D01*
X292208Y158251D01*
X292281Y158334D01*
X292356Y158416D01*
X292434Y158494D01*
X292516Y158569D01*
X292599Y158642D01*
X292685Y158712D01*
X292774Y158779D01*
X292865Y158842D01*
X292958Y158903D01*
X293053Y158960D01*
X293149Y159013D01*
X293248Y159064D01*
X293349Y159111D01*
X293451Y159154D01*
X293554Y159194D01*
X293659Y159230D01*
X293765Y159262D01*
X293872Y159291D01*
X293980Y159316D01*
X294089Y159337D01*
X294198Y159354D01*
X294308Y159368D01*
X294419Y159377D01*
X294529Y159383D01*
X294640Y159385D01*
X294751Y159383D01*
X294861Y159377D01*
X294972Y159368D01*
X295082Y159354D01*
X295191Y159337D01*
X295300Y159316D01*
X295408Y159291D01*
X295515Y159262D01*
X295621Y159230D01*
X295726Y159194D01*
X295829Y159154D01*
X295931Y159111D01*
X296032Y159064D01*
X296131Y159013D01*
X296228Y158960D01*
X296322Y158903D01*
X296415Y158842D01*
X296506Y158779D01*
X296595Y158712D01*
X296681Y158642D01*
X296764Y158569D01*
X296846Y158494D01*
X296924Y158416D01*
X296999Y158334D01*
X297072Y158251D01*
X297142Y158165D01*
X297209Y158076D01*
X297272Y157985D01*
X297333Y157892D01*
X297390Y157798D01*
X297443Y157701D01*
X297494Y157602D01*
X297541Y157501D01*
X297584Y157399D01*
X297624Y157296D01*
X297660Y157191D01*
X297692Y157085D01*
X297721Y156978D01*
X297746Y156870D01*
X297767Y156761D01*
X297784Y156652D01*
X297798Y156542D01*
X297807Y156431D01*
X297813Y156321D01*
X297815Y156210D01*
X297815Y153035D01*
X297815Y156845D02*
X302895Y159385D01*
X294005Y164382D02*
X291465Y167557D01*
X302895Y167557D01*
X302895Y164382D02*
X302895Y170732D01*
D10*
X328930Y346710D02*
X328928Y346810D01*
X328922Y346909D01*
X328912Y347009D01*
X328899Y347107D01*
X328881Y347206D01*
X328860Y347303D01*
X328835Y347399D01*
X328806Y347495D01*
X328773Y347589D01*
X328737Y347682D01*
X328697Y347773D01*
X328653Y347863D01*
X328606Y347951D01*
X328556Y348037D01*
X328502Y348121D01*
X328445Y348203D01*
X328385Y348282D01*
X328321Y348360D01*
X328255Y348434D01*
X328186Y348506D01*
X328114Y348575D01*
X328040Y348641D01*
X327962Y348705D01*
X327883Y348765D01*
X327801Y348822D01*
X327717Y348876D01*
X327631Y348926D01*
X327543Y348973D01*
X327453Y349017D01*
X327362Y349057D01*
X327269Y349093D01*
X327175Y349126D01*
X327079Y349155D01*
X326983Y349180D01*
X326886Y349201D01*
X326787Y349219D01*
X326689Y349232D01*
X326589Y349242D01*
X326490Y349248D01*
X326390Y349250D01*
X308610Y349250D02*
X308510Y349248D01*
X308411Y349242D01*
X308311Y349232D01*
X308213Y349219D01*
X308114Y349201D01*
X308017Y349180D01*
X307921Y349155D01*
X307825Y349126D01*
X307731Y349093D01*
X307638Y349057D01*
X307547Y349017D01*
X307457Y348973D01*
X307369Y348926D01*
X307283Y348876D01*
X307199Y348822D01*
X307117Y348765D01*
X307038Y348705D01*
X306960Y348641D01*
X306886Y348575D01*
X306814Y348506D01*
X306745Y348434D01*
X306679Y348360D01*
X306615Y348282D01*
X306555Y348203D01*
X306498Y348121D01*
X306444Y348037D01*
X306394Y347951D01*
X306347Y347863D01*
X306303Y347773D01*
X306263Y347682D01*
X306227Y347589D01*
X306194Y347495D01*
X306165Y347399D01*
X306140Y347303D01*
X306119Y347206D01*
X306101Y347107D01*
X306088Y347009D01*
X306078Y346909D01*
X306072Y346810D01*
X306070Y346710D01*
X306070Y288290D02*
X306072Y288190D01*
X306078Y288091D01*
X306088Y287991D01*
X306101Y287893D01*
X306119Y287794D01*
X306140Y287697D01*
X306165Y287601D01*
X306194Y287505D01*
X306227Y287411D01*
X306263Y287318D01*
X306303Y287227D01*
X306347Y287137D01*
X306394Y287049D01*
X306444Y286963D01*
X306498Y286879D01*
X306555Y286797D01*
X306615Y286718D01*
X306679Y286640D01*
X306745Y286566D01*
X306814Y286494D01*
X306886Y286425D01*
X306960Y286359D01*
X307038Y286295D01*
X307117Y286235D01*
X307199Y286178D01*
X307283Y286124D01*
X307369Y286074D01*
X307457Y286027D01*
X307547Y285983D01*
X307638Y285943D01*
X307731Y285907D01*
X307825Y285874D01*
X307921Y285845D01*
X308017Y285820D01*
X308114Y285799D01*
X308213Y285781D01*
X308311Y285768D01*
X308411Y285758D01*
X308510Y285752D01*
X308610Y285750D01*
X326390Y285750D02*
X326490Y285752D01*
X326589Y285758D01*
X326689Y285768D01*
X326787Y285781D01*
X326886Y285799D01*
X326983Y285820D01*
X327079Y285845D01*
X327175Y285874D01*
X327269Y285907D01*
X327362Y285943D01*
X327453Y285983D01*
X327543Y286027D01*
X327631Y286074D01*
X327717Y286124D01*
X327801Y286178D01*
X327883Y286235D01*
X327962Y286295D01*
X328040Y286359D01*
X328114Y286425D01*
X328186Y286494D01*
X328255Y286566D01*
X328321Y286640D01*
X328385Y286718D01*
X328445Y286797D01*
X328502Y286879D01*
X328556Y286963D01*
X328606Y287049D01*
X328653Y287137D01*
X328697Y287227D01*
X328737Y287318D01*
X328773Y287411D01*
X328806Y287505D01*
X328835Y287601D01*
X328860Y287697D01*
X328881Y287794D01*
X328899Y287893D01*
X328912Y287991D01*
X328922Y288091D01*
X328928Y288190D01*
X328930Y288290D01*
X328930Y342900D02*
X328930Y346710D01*
X328930Y342900D02*
X327660Y341630D01*
X306070Y342900D02*
X306070Y346710D01*
X306070Y342900D02*
X307340Y341630D01*
X327660Y293370D02*
X328930Y292100D01*
X327660Y293370D02*
X327660Y341630D01*
X307340Y293370D02*
X306070Y292100D01*
X307340Y293370D02*
X307340Y341630D01*
X328930Y292100D02*
X328930Y288290D01*
X306070Y288290D02*
X306070Y292100D01*
D11*
X332105Y324568D02*
X343535Y324568D01*
X332105Y324568D02*
X332105Y327743D01*
X332107Y327854D01*
X332113Y327964D01*
X332122Y328075D01*
X332136Y328185D01*
X332153Y328294D01*
X332174Y328403D01*
X332199Y328511D01*
X332228Y328618D01*
X332260Y328724D01*
X332296Y328829D01*
X332336Y328932D01*
X332379Y329034D01*
X332426Y329135D01*
X332477Y329234D01*
X332530Y329331D01*
X332587Y329425D01*
X332648Y329518D01*
X332711Y329609D01*
X332778Y329698D01*
X332848Y329784D01*
X332921Y329867D01*
X332996Y329949D01*
X333074Y330027D01*
X333156Y330102D01*
X333239Y330175D01*
X333325Y330245D01*
X333414Y330312D01*
X333505Y330375D01*
X333598Y330436D01*
X333693Y330493D01*
X333789Y330546D01*
X333888Y330597D01*
X333989Y330644D01*
X334091Y330687D01*
X334194Y330727D01*
X334299Y330763D01*
X334405Y330795D01*
X334512Y330824D01*
X334620Y330849D01*
X334729Y330870D01*
X334838Y330887D01*
X334948Y330901D01*
X335059Y330910D01*
X335169Y330916D01*
X335280Y330918D01*
X335391Y330916D01*
X335501Y330910D01*
X335612Y330901D01*
X335722Y330887D01*
X335831Y330870D01*
X335940Y330849D01*
X336048Y330824D01*
X336155Y330795D01*
X336261Y330763D01*
X336366Y330727D01*
X336469Y330687D01*
X336571Y330644D01*
X336672Y330597D01*
X336771Y330546D01*
X336868Y330493D01*
X336962Y330436D01*
X337055Y330375D01*
X337146Y330312D01*
X337235Y330245D01*
X337321Y330175D01*
X337404Y330102D01*
X337486Y330027D01*
X337564Y329949D01*
X337639Y329867D01*
X337712Y329784D01*
X337782Y329698D01*
X337849Y329609D01*
X337912Y329518D01*
X337973Y329425D01*
X338030Y329331D01*
X338083Y329234D01*
X338134Y329135D01*
X338181Y329034D01*
X338224Y328932D01*
X338264Y328829D01*
X338300Y328724D01*
X338332Y328618D01*
X338361Y328511D01*
X338386Y328403D01*
X338407Y328294D01*
X338424Y328185D01*
X338438Y328075D01*
X338447Y327964D01*
X338453Y327854D01*
X338455Y327743D01*
X338455Y324568D01*
X338455Y328378D02*
X343535Y330918D01*
X334963Y342266D02*
X334859Y342264D01*
X334754Y342258D01*
X334650Y342249D01*
X334547Y342236D01*
X334444Y342218D01*
X334342Y342198D01*
X334240Y342173D01*
X334140Y342145D01*
X334040Y342113D01*
X333942Y342077D01*
X333845Y342038D01*
X333750Y341996D01*
X333656Y341950D01*
X333564Y341900D01*
X333474Y341848D01*
X333386Y341792D01*
X333300Y341732D01*
X333216Y341670D01*
X333135Y341605D01*
X333056Y341537D01*
X332979Y341465D01*
X332906Y341392D01*
X332834Y341315D01*
X332766Y341236D01*
X332701Y341155D01*
X332639Y341071D01*
X332579Y340985D01*
X332523Y340897D01*
X332471Y340807D01*
X332421Y340715D01*
X332375Y340621D01*
X332333Y340526D01*
X332294Y340429D01*
X332258Y340331D01*
X332226Y340231D01*
X332198Y340131D01*
X332173Y340029D01*
X332153Y339927D01*
X332135Y339824D01*
X332122Y339721D01*
X332113Y339617D01*
X332107Y339512D01*
X332105Y339408D01*
X332107Y339290D01*
X332113Y339171D01*
X332122Y339053D01*
X332135Y338936D01*
X332153Y338819D01*
X332173Y338702D01*
X332198Y338586D01*
X332226Y338471D01*
X332259Y338358D01*
X332294Y338245D01*
X332334Y338133D01*
X332376Y338023D01*
X332423Y337914D01*
X332473Y337806D01*
X332526Y337701D01*
X332583Y337597D01*
X332643Y337495D01*
X332706Y337395D01*
X332773Y337297D01*
X332842Y337201D01*
X332915Y337108D01*
X332991Y337017D01*
X333069Y336928D01*
X333151Y336842D01*
X333235Y336759D01*
X333321Y336678D01*
X333411Y336601D01*
X333502Y336526D01*
X333596Y336454D01*
X333693Y336385D01*
X333791Y336320D01*
X333892Y336257D01*
X333995Y336198D01*
X334099Y336142D01*
X334205Y336090D01*
X334313Y336041D01*
X334422Y335996D01*
X334533Y335954D01*
X334645Y335916D01*
X337185Y341313D02*
X337110Y341389D01*
X337031Y341464D01*
X336950Y341535D01*
X336866Y341604D01*
X336780Y341669D01*
X336692Y341731D01*
X336602Y341791D01*
X336510Y341847D01*
X336415Y341900D01*
X336319Y341949D01*
X336221Y341995D01*
X336122Y342038D01*
X336021Y342077D01*
X335919Y342112D01*
X335816Y342144D01*
X335712Y342172D01*
X335607Y342197D01*
X335500Y342218D01*
X335394Y342235D01*
X335287Y342248D01*
X335179Y342257D01*
X335071Y342263D01*
X334963Y342265D01*
X337185Y341313D02*
X343535Y335915D01*
X343535Y342265D01*
D10*
X76200Y276860D02*
X68580Y276860D01*
X68580Y257810D01*
X67310Y256540D01*
X64770Y254000D01*
X67310Y251460D01*
X68580Y250190D01*
X29210Y256540D02*
X27940Y256540D01*
X27940Y276860D01*
X29210Y256540D02*
X29210Y251460D01*
X27940Y251460D01*
X27940Y231140D01*
X68580Y231140D02*
X68580Y250190D01*
X68580Y231140D02*
X76200Y231140D01*
X68580Y276860D02*
X35560Y276860D01*
X33020Y276860D02*
X27940Y276860D01*
X33020Y276860D02*
X33020Y273050D01*
X33020Y231140D02*
X27940Y231140D01*
X33020Y231140D02*
X33020Y234950D01*
X35560Y231140D02*
X68580Y231140D01*
X35560Y234950D02*
X33020Y234950D01*
X38100Y234950D02*
X38100Y247650D01*
X35560Y260350D02*
X33020Y260350D01*
X33020Y273050D02*
X35560Y273050D01*
X38100Y273050D02*
X38100Y260350D01*
X33020Y260350D02*
X33020Y247650D01*
X35560Y260350D02*
X38100Y260350D01*
X35560Y247650D02*
X33020Y247650D01*
X35560Y247650D02*
X38100Y247650D01*
X35560Y247650D02*
X35560Y251460D01*
X67310Y251460D01*
X35560Y256540D02*
X35560Y260350D01*
X35560Y256540D02*
X35560Y251460D01*
X35560Y256540D02*
X67310Y256540D01*
X35560Y234950D02*
X35560Y231140D01*
X35560Y234950D02*
X38100Y234950D01*
X35560Y231140D02*
X33020Y231140D01*
X35560Y273050D02*
X35560Y276860D01*
X35560Y273050D02*
X38100Y273050D01*
X35560Y276860D02*
X33020Y276860D01*
X76200Y276860D02*
X76200Y269240D01*
X77470Y269240D01*
X77470Y264160D02*
X76200Y264160D01*
X77470Y264160D02*
X77470Y269240D01*
X77470Y243840D02*
X76200Y243840D01*
X76200Y238760D02*
X76200Y231140D01*
X76200Y238760D02*
X77470Y238760D01*
X77470Y243840D01*
X76200Y251460D02*
X74930Y251460D01*
X76200Y251460D02*
X76200Y243840D01*
X74930Y251460D02*
X74930Y256540D01*
X76200Y256540D01*
X76200Y264160D01*
D11*
X63232Y270891D02*
X60833Y268972D01*
X63232Y270891D02*
X63232Y262255D01*
X60833Y262255D02*
X65631Y262255D01*
X89789Y255270D02*
X89889Y255268D01*
X89988Y255262D01*
X90088Y255252D01*
X90186Y255239D01*
X90285Y255221D01*
X90382Y255200D01*
X90478Y255175D01*
X90574Y255146D01*
X90668Y255113D01*
X90761Y255077D01*
X90852Y255037D01*
X90942Y254993D01*
X91030Y254946D01*
X91116Y254896D01*
X91200Y254842D01*
X91282Y254785D01*
X91361Y254725D01*
X91439Y254661D01*
X91513Y254595D01*
X91585Y254526D01*
X91654Y254454D01*
X91720Y254380D01*
X91784Y254302D01*
X91844Y254223D01*
X91901Y254141D01*
X91955Y254057D01*
X92005Y253971D01*
X92052Y253883D01*
X92096Y253793D01*
X92136Y253702D01*
X92172Y253609D01*
X92205Y253515D01*
X92234Y253419D01*
X92259Y253323D01*
X92280Y253226D01*
X92298Y253127D01*
X92311Y253029D01*
X92321Y252929D01*
X92327Y252830D01*
X92329Y252730D01*
X92327Y252589D01*
X92322Y252448D01*
X92312Y252307D01*
X92299Y252166D01*
X92283Y252026D01*
X92262Y251886D01*
X92238Y251747D01*
X92210Y251608D01*
X92179Y251471D01*
X92144Y251334D01*
X92106Y251198D01*
X92064Y251063D01*
X92018Y250930D01*
X91969Y250797D01*
X91916Y250666D01*
X91860Y250537D01*
X91801Y250408D01*
X91738Y250282D01*
X91672Y250157D01*
X91603Y250034D01*
X91530Y249913D01*
X91454Y249794D01*
X91375Y249676D01*
X91294Y249561D01*
X91209Y249449D01*
X91121Y249338D01*
X91030Y249230D01*
X90937Y249124D01*
X90840Y249021D01*
X90741Y248920D01*
X83439Y249238D02*
X83339Y249240D01*
X83240Y249246D01*
X83140Y249256D01*
X83042Y249269D01*
X82943Y249287D01*
X82846Y249308D01*
X82750Y249333D01*
X82654Y249362D01*
X82560Y249395D01*
X82467Y249431D01*
X82376Y249471D01*
X82286Y249515D01*
X82198Y249562D01*
X82112Y249612D01*
X82028Y249666D01*
X81946Y249723D01*
X81867Y249783D01*
X81789Y249847D01*
X81715Y249913D01*
X81643Y249982D01*
X81574Y250054D01*
X81508Y250128D01*
X81444Y250206D01*
X81384Y250285D01*
X81327Y250367D01*
X81273Y250451D01*
X81223Y250537D01*
X81176Y250625D01*
X81132Y250715D01*
X81092Y250806D01*
X81056Y250899D01*
X81023Y250993D01*
X80994Y251089D01*
X80969Y251185D01*
X80948Y251282D01*
X80930Y251381D01*
X80917Y251479D01*
X80907Y251579D01*
X80901Y251678D01*
X80899Y251778D01*
X80901Y251911D01*
X80906Y252044D01*
X80916Y252177D01*
X80929Y252310D01*
X80946Y252442D01*
X80966Y252574D01*
X80990Y252705D01*
X81018Y252835D01*
X81049Y252965D01*
X81084Y253093D01*
X81123Y253221D01*
X81165Y253347D01*
X81211Y253472D01*
X81260Y253596D01*
X81312Y253719D01*
X81368Y253840D01*
X81428Y253959D01*
X81490Y254077D01*
X81556Y254192D01*
X81625Y254306D01*
X81698Y254418D01*
X81773Y254528D01*
X81852Y254636D01*
X85662Y250507D02*
X85610Y250423D01*
X85555Y250340D01*
X85496Y250260D01*
X85435Y250182D01*
X85371Y250107D01*
X85303Y250034D01*
X85233Y249963D01*
X85161Y249896D01*
X85086Y249831D01*
X85008Y249769D01*
X84928Y249710D01*
X84846Y249654D01*
X84762Y249602D01*
X84676Y249553D01*
X84588Y249507D01*
X84498Y249464D01*
X84407Y249425D01*
X84314Y249390D01*
X84220Y249358D01*
X84125Y249330D01*
X84029Y249305D01*
X83932Y249285D01*
X83834Y249267D01*
X83736Y249254D01*
X83637Y249245D01*
X83538Y249239D01*
X83439Y249237D01*
X87566Y254000D02*
X87618Y254084D01*
X87673Y254167D01*
X87732Y254247D01*
X87793Y254325D01*
X87857Y254400D01*
X87925Y254473D01*
X87995Y254544D01*
X88067Y254611D01*
X88142Y254676D01*
X88220Y254738D01*
X88300Y254797D01*
X88382Y254853D01*
X88466Y254905D01*
X88552Y254954D01*
X88640Y255000D01*
X88730Y255043D01*
X88821Y255082D01*
X88914Y255117D01*
X89008Y255149D01*
X89103Y255177D01*
X89199Y255202D01*
X89296Y255222D01*
X89394Y255240D01*
X89492Y255253D01*
X89591Y255262D01*
X89690Y255268D01*
X89789Y255270D01*
X87567Y254000D02*
X85662Y250508D01*
X80899Y260375D02*
X92329Y260375D01*
X92329Y265455D01*
X83439Y269875D02*
X80899Y273050D01*
X92329Y273050D01*
X92329Y269875D02*
X92329Y276225D01*
D10*
X355600Y167640D02*
X363220Y167640D01*
X363220Y186690D01*
X364490Y187960D01*
X367030Y190500D01*
X364490Y193040D01*
X363220Y194310D01*
X402590Y187960D02*
X403860Y187960D01*
X403860Y167640D01*
X402590Y187960D02*
X402590Y193040D01*
X403860Y193040D01*
X403860Y213360D01*
X363220Y213360D02*
X363220Y194310D01*
X363220Y213360D02*
X355600Y213360D01*
X363220Y167640D02*
X396240Y167640D01*
X398780Y167640D02*
X403860Y167640D01*
X398780Y167640D02*
X398780Y171450D01*
X398780Y213360D02*
X403860Y213360D01*
X398780Y213360D02*
X398780Y209550D01*
X396240Y213360D02*
X363220Y213360D01*
X396240Y209550D02*
X398780Y209550D01*
X393700Y209550D02*
X393700Y196850D01*
X396240Y184150D02*
X398780Y184150D01*
X398780Y171450D02*
X396240Y171450D01*
X393700Y171450D02*
X393700Y184150D01*
X398780Y184150D02*
X398780Y196850D01*
X396240Y184150D02*
X393700Y184150D01*
X396240Y196850D02*
X398780Y196850D01*
X396240Y196850D02*
X393700Y196850D01*
X396240Y196850D02*
X396240Y193040D01*
X364490Y193040D01*
X396240Y187960D02*
X396240Y184150D01*
X396240Y187960D02*
X396240Y193040D01*
X396240Y187960D02*
X364490Y187960D01*
X396240Y209550D02*
X396240Y213360D01*
X396240Y209550D02*
X393700Y209550D01*
X396240Y213360D02*
X398780Y213360D01*
X396240Y171450D02*
X396240Y167640D01*
X396240Y171450D02*
X393700Y171450D01*
X396240Y167640D02*
X398780Y167640D01*
X355600Y167640D02*
X355600Y175260D01*
X354330Y175260D01*
X354330Y180340D02*
X355600Y180340D01*
X354330Y180340D02*
X354330Y175260D01*
X354330Y200660D02*
X355600Y200660D01*
X355600Y205740D02*
X355600Y213360D01*
X355600Y205740D02*
X354330Y205740D01*
X354330Y200660D01*
X355600Y193040D02*
X356870Y193040D01*
X355600Y193040D02*
X355600Y200660D01*
X356870Y193040D02*
X356870Y187960D01*
X355600Y187960D01*
X355600Y180340D01*
D11*
X366169Y180326D02*
X368568Y182245D01*
X368568Y173609D01*
X366169Y173609D02*
X370967Y173609D01*
X350901Y172085D02*
X350899Y172185D01*
X350893Y172284D01*
X350883Y172384D01*
X350870Y172482D01*
X350852Y172581D01*
X350831Y172678D01*
X350806Y172774D01*
X350777Y172870D01*
X350744Y172964D01*
X350708Y173057D01*
X350668Y173148D01*
X350624Y173238D01*
X350577Y173326D01*
X350527Y173412D01*
X350473Y173496D01*
X350416Y173578D01*
X350356Y173657D01*
X350292Y173735D01*
X350226Y173809D01*
X350157Y173881D01*
X350085Y173950D01*
X350011Y174016D01*
X349933Y174080D01*
X349854Y174140D01*
X349772Y174197D01*
X349688Y174251D01*
X349602Y174301D01*
X349514Y174348D01*
X349424Y174392D01*
X349333Y174432D01*
X349240Y174468D01*
X349146Y174501D01*
X349050Y174530D01*
X348954Y174555D01*
X348857Y174576D01*
X348758Y174594D01*
X348660Y174607D01*
X348560Y174617D01*
X348461Y174623D01*
X348361Y174625D01*
X350901Y172085D02*
X350899Y171944D01*
X350894Y171803D01*
X350884Y171662D01*
X350871Y171521D01*
X350855Y171381D01*
X350834Y171241D01*
X350810Y171102D01*
X350782Y170963D01*
X350751Y170826D01*
X350716Y170689D01*
X350678Y170553D01*
X350636Y170418D01*
X350590Y170285D01*
X350541Y170152D01*
X350488Y170021D01*
X350432Y169892D01*
X350373Y169763D01*
X350310Y169637D01*
X350244Y169512D01*
X350175Y169389D01*
X350102Y169268D01*
X350026Y169149D01*
X349947Y169031D01*
X349866Y168916D01*
X349781Y168804D01*
X349693Y168693D01*
X349602Y168585D01*
X349509Y168479D01*
X349412Y168376D01*
X349313Y168275D01*
X342011Y168593D02*
X341911Y168595D01*
X341812Y168601D01*
X341712Y168611D01*
X341614Y168624D01*
X341515Y168642D01*
X341418Y168663D01*
X341322Y168688D01*
X341226Y168717D01*
X341132Y168750D01*
X341039Y168786D01*
X340948Y168826D01*
X340858Y168870D01*
X340770Y168917D01*
X340684Y168967D01*
X340600Y169021D01*
X340518Y169078D01*
X340439Y169138D01*
X340361Y169202D01*
X340287Y169268D01*
X340215Y169337D01*
X340146Y169409D01*
X340080Y169483D01*
X340016Y169561D01*
X339956Y169640D01*
X339899Y169722D01*
X339845Y169806D01*
X339795Y169892D01*
X339748Y169980D01*
X339704Y170070D01*
X339664Y170161D01*
X339628Y170254D01*
X339595Y170348D01*
X339566Y170444D01*
X339541Y170540D01*
X339520Y170637D01*
X339502Y170736D01*
X339489Y170834D01*
X339479Y170934D01*
X339473Y171033D01*
X339471Y171133D01*
X339473Y171266D01*
X339478Y171399D01*
X339488Y171532D01*
X339501Y171665D01*
X339518Y171797D01*
X339538Y171929D01*
X339562Y172060D01*
X339590Y172190D01*
X339621Y172320D01*
X339656Y172448D01*
X339695Y172576D01*
X339737Y172702D01*
X339783Y172827D01*
X339832Y172951D01*
X339884Y173074D01*
X339940Y173195D01*
X340000Y173314D01*
X340062Y173432D01*
X340128Y173547D01*
X340197Y173661D01*
X340270Y173773D01*
X340345Y173883D01*
X340424Y173991D01*
X344234Y169862D02*
X344182Y169778D01*
X344127Y169695D01*
X344068Y169615D01*
X344007Y169537D01*
X343943Y169462D01*
X343875Y169389D01*
X343805Y169318D01*
X343733Y169251D01*
X343658Y169186D01*
X343580Y169124D01*
X343500Y169065D01*
X343418Y169009D01*
X343334Y168957D01*
X343248Y168908D01*
X343160Y168862D01*
X343070Y168819D01*
X342979Y168780D01*
X342886Y168745D01*
X342792Y168713D01*
X342697Y168685D01*
X342601Y168660D01*
X342504Y168640D01*
X342406Y168622D01*
X342308Y168609D01*
X342209Y168600D01*
X342110Y168594D01*
X342011Y168592D01*
X346138Y173355D02*
X346190Y173439D01*
X346245Y173522D01*
X346304Y173602D01*
X346365Y173680D01*
X346429Y173755D01*
X346497Y173828D01*
X346567Y173899D01*
X346639Y173966D01*
X346714Y174031D01*
X346792Y174093D01*
X346872Y174152D01*
X346954Y174208D01*
X347038Y174260D01*
X347124Y174309D01*
X347212Y174355D01*
X347302Y174398D01*
X347393Y174437D01*
X347486Y174472D01*
X347580Y174504D01*
X347675Y174532D01*
X347771Y174557D01*
X347868Y174577D01*
X347966Y174595D01*
X348064Y174608D01*
X348163Y174617D01*
X348262Y174623D01*
X348361Y174625D01*
X346139Y173355D02*
X344234Y169863D01*
X339471Y179730D02*
X350901Y179730D01*
X350901Y184810D01*
X350901Y189230D02*
X350901Y192405D01*
X350899Y192516D01*
X350893Y192626D01*
X350884Y192737D01*
X350870Y192847D01*
X350853Y192956D01*
X350832Y193065D01*
X350807Y193173D01*
X350778Y193280D01*
X350746Y193386D01*
X350710Y193491D01*
X350670Y193594D01*
X350627Y193696D01*
X350580Y193797D01*
X350529Y193896D01*
X350476Y193993D01*
X350419Y194087D01*
X350358Y194180D01*
X350295Y194271D01*
X350228Y194360D01*
X350158Y194446D01*
X350085Y194529D01*
X350010Y194611D01*
X349932Y194689D01*
X349850Y194764D01*
X349767Y194837D01*
X349681Y194907D01*
X349592Y194974D01*
X349501Y195037D01*
X349408Y195098D01*
X349314Y195155D01*
X349217Y195208D01*
X349118Y195259D01*
X349017Y195306D01*
X348915Y195349D01*
X348812Y195389D01*
X348707Y195425D01*
X348601Y195457D01*
X348494Y195486D01*
X348386Y195511D01*
X348277Y195532D01*
X348168Y195549D01*
X348058Y195563D01*
X347947Y195572D01*
X347837Y195578D01*
X347726Y195580D01*
X347615Y195578D01*
X347505Y195572D01*
X347394Y195563D01*
X347284Y195549D01*
X347175Y195532D01*
X347066Y195511D01*
X346958Y195486D01*
X346851Y195457D01*
X346745Y195425D01*
X346640Y195389D01*
X346537Y195349D01*
X346435Y195306D01*
X346334Y195259D01*
X346235Y195208D01*
X346139Y195155D01*
X346044Y195098D01*
X345951Y195037D01*
X345860Y194974D01*
X345771Y194907D01*
X345685Y194837D01*
X345602Y194764D01*
X345520Y194689D01*
X345442Y194611D01*
X345367Y194529D01*
X345294Y194446D01*
X345224Y194360D01*
X345157Y194271D01*
X345094Y194180D01*
X345033Y194087D01*
X344976Y193993D01*
X344923Y193896D01*
X344872Y193797D01*
X344825Y193696D01*
X344782Y193594D01*
X344742Y193491D01*
X344706Y193386D01*
X344674Y193280D01*
X344645Y193173D01*
X344620Y193065D01*
X344599Y192956D01*
X344582Y192847D01*
X344568Y192737D01*
X344559Y192626D01*
X344553Y192516D01*
X344551Y192405D01*
X339471Y193040D02*
X339471Y189230D01*
X339471Y193040D02*
X339473Y193140D01*
X339479Y193239D01*
X339489Y193339D01*
X339502Y193437D01*
X339520Y193536D01*
X339541Y193633D01*
X339566Y193729D01*
X339595Y193825D01*
X339628Y193919D01*
X339664Y194012D01*
X339704Y194103D01*
X339748Y194193D01*
X339795Y194281D01*
X339845Y194367D01*
X339899Y194451D01*
X339956Y194533D01*
X340016Y194612D01*
X340080Y194690D01*
X340146Y194764D01*
X340215Y194836D01*
X340287Y194905D01*
X340361Y194971D01*
X340439Y195035D01*
X340518Y195095D01*
X340600Y195152D01*
X340684Y195206D01*
X340770Y195256D01*
X340858Y195303D01*
X340948Y195347D01*
X341039Y195387D01*
X341132Y195423D01*
X341226Y195456D01*
X341322Y195485D01*
X341418Y195510D01*
X341515Y195531D01*
X341614Y195549D01*
X341712Y195562D01*
X341812Y195572D01*
X341911Y195578D01*
X342011Y195580D01*
X342111Y195578D01*
X342210Y195572D01*
X342310Y195562D01*
X342408Y195549D01*
X342507Y195531D01*
X342604Y195510D01*
X342700Y195485D01*
X342796Y195456D01*
X342890Y195423D01*
X342983Y195387D01*
X343074Y195347D01*
X343164Y195303D01*
X343252Y195256D01*
X343338Y195206D01*
X343422Y195152D01*
X343504Y195095D01*
X343583Y195035D01*
X343661Y194971D01*
X343735Y194905D01*
X343807Y194836D01*
X343876Y194764D01*
X343942Y194690D01*
X344006Y194612D01*
X344066Y194533D01*
X344123Y194451D01*
X344177Y194367D01*
X344227Y194281D01*
X344274Y194193D01*
X344318Y194103D01*
X344358Y194012D01*
X344394Y193919D01*
X344427Y193825D01*
X344456Y193729D01*
X344481Y193633D01*
X344502Y193536D01*
X344520Y193437D01*
X344533Y193339D01*
X344543Y193239D01*
X344549Y193140D01*
X344551Y193040D01*
X344551Y190500D01*
D10*
X363220Y262890D02*
X364490Y264160D01*
X367030Y266700D01*
X364490Y269240D01*
X363220Y270510D01*
X402590Y264160D02*
X403860Y264160D01*
X403860Y243840D01*
X402590Y264160D02*
X402590Y269240D01*
X403860Y269240D01*
X363220Y243840D02*
X355600Y243840D01*
X363220Y243840D02*
X396240Y243840D01*
X398780Y243840D02*
X403860Y243840D01*
X398780Y243840D02*
X398780Y247650D01*
X398780Y260350D02*
X396240Y260350D01*
X396240Y247650D02*
X398780Y247650D01*
X393700Y247650D02*
X393700Y260350D01*
X396240Y260350D01*
X396240Y273050D02*
X398780Y273050D01*
X396240Y273050D02*
X393700Y273050D01*
X396240Y264160D02*
X396240Y260350D01*
X396240Y264160D02*
X396240Y269240D01*
X396240Y273050D01*
X396240Y247650D02*
X396240Y243840D01*
X396240Y247650D02*
X393700Y247650D01*
X396240Y243840D02*
X398780Y243840D01*
X355600Y243840D02*
X355600Y251460D01*
X354330Y251460D01*
X354330Y256540D02*
X355600Y256540D01*
X354330Y256540D02*
X354330Y251460D01*
X354330Y276860D02*
X355600Y276860D01*
X355600Y281940D02*
X354330Y281940D01*
X355600Y269240D02*
X356870Y269240D01*
X356870Y264160D02*
X355600Y264160D01*
X367030Y292100D02*
X364490Y294640D01*
X363220Y295910D01*
X402590Y294640D02*
X402590Y289560D01*
X402590Y294640D02*
X403860Y294640D01*
X403860Y314960D01*
X363220Y314960D02*
X363220Y295910D01*
X363220Y314960D02*
X355600Y314960D01*
X398780Y314960D02*
X403860Y314960D01*
X398780Y314960D02*
X398780Y311150D01*
X396240Y314960D02*
X363220Y314960D01*
X396240Y311150D02*
X398780Y311150D01*
X393700Y311150D02*
X393700Y298450D01*
X396240Y285750D02*
X398780Y285750D01*
X396240Y285750D02*
X393700Y285750D01*
X396240Y298450D02*
X398780Y298450D01*
X396240Y298450D02*
X393700Y298450D01*
X396240Y289560D02*
X396240Y285750D01*
X396240Y289560D02*
X396240Y294640D01*
X396240Y298450D01*
X396240Y311150D02*
X396240Y314960D01*
X396240Y311150D02*
X393700Y311150D01*
X396240Y314960D02*
X398780Y314960D01*
X355600Y302260D02*
X354330Y302260D01*
X355600Y307340D02*
X355600Y314960D01*
X355600Y307340D02*
X354330Y307340D01*
X354330Y302260D01*
X355600Y294640D02*
X356870Y294640D01*
X355600Y294640D02*
X355600Y302260D01*
X356870Y294640D02*
X356870Y289560D01*
X355600Y289560D01*
X363220Y288290D02*
X364490Y289560D01*
X367030Y292100D01*
X355600Y289560D02*
X355600Y281940D01*
X354330Y281940D02*
X354330Y276860D01*
X355600Y276860D02*
X355600Y269240D01*
X356870Y269240D02*
X356870Y264160D01*
X355600Y264160D02*
X355600Y256540D01*
X363220Y262890D02*
X363220Y243840D01*
X363220Y270510D02*
X363220Y288290D01*
X364490Y269240D02*
X396240Y269240D01*
X396240Y264160D02*
X364490Y264160D01*
X364490Y289560D02*
X396240Y289560D01*
X396240Y294640D02*
X364490Y294640D01*
X393700Y285750D02*
X393700Y273050D01*
X398780Y273050D02*
X398780Y260350D01*
X403860Y269240D02*
X403860Y289560D01*
X398780Y285750D02*
X398780Y298450D01*
X402590Y289560D02*
X403860Y289560D01*
D11*
X368568Y258445D02*
X366169Y256526D01*
X368568Y258445D02*
X368568Y249809D01*
X366169Y249809D02*
X370967Y249809D01*
X350901Y248285D02*
X350899Y248385D01*
X350893Y248484D01*
X350883Y248584D01*
X350870Y248682D01*
X350852Y248781D01*
X350831Y248878D01*
X350806Y248974D01*
X350777Y249070D01*
X350744Y249164D01*
X350708Y249257D01*
X350668Y249348D01*
X350624Y249438D01*
X350577Y249526D01*
X350527Y249612D01*
X350473Y249696D01*
X350416Y249778D01*
X350356Y249857D01*
X350292Y249935D01*
X350226Y250009D01*
X350157Y250081D01*
X350085Y250150D01*
X350011Y250216D01*
X349933Y250280D01*
X349854Y250340D01*
X349772Y250397D01*
X349688Y250451D01*
X349602Y250501D01*
X349514Y250548D01*
X349424Y250592D01*
X349333Y250632D01*
X349240Y250668D01*
X349146Y250701D01*
X349050Y250730D01*
X348954Y250755D01*
X348857Y250776D01*
X348758Y250794D01*
X348660Y250807D01*
X348560Y250817D01*
X348461Y250823D01*
X348361Y250825D01*
X350901Y248285D02*
X350899Y248144D01*
X350894Y248003D01*
X350884Y247862D01*
X350871Y247721D01*
X350855Y247581D01*
X350834Y247441D01*
X350810Y247302D01*
X350782Y247163D01*
X350751Y247026D01*
X350716Y246889D01*
X350678Y246753D01*
X350636Y246618D01*
X350590Y246485D01*
X350541Y246352D01*
X350488Y246221D01*
X350432Y246092D01*
X350373Y245963D01*
X350310Y245837D01*
X350244Y245712D01*
X350175Y245589D01*
X350102Y245468D01*
X350026Y245349D01*
X349947Y245231D01*
X349866Y245116D01*
X349781Y245004D01*
X349693Y244893D01*
X349602Y244785D01*
X349509Y244679D01*
X349412Y244576D01*
X349313Y244475D01*
X342011Y244793D02*
X341911Y244795D01*
X341812Y244801D01*
X341712Y244811D01*
X341614Y244824D01*
X341515Y244842D01*
X341418Y244863D01*
X341322Y244888D01*
X341226Y244917D01*
X341132Y244950D01*
X341039Y244986D01*
X340948Y245026D01*
X340858Y245070D01*
X340770Y245117D01*
X340684Y245167D01*
X340600Y245221D01*
X340518Y245278D01*
X340439Y245338D01*
X340361Y245402D01*
X340287Y245468D01*
X340215Y245537D01*
X340146Y245609D01*
X340080Y245683D01*
X340016Y245761D01*
X339956Y245840D01*
X339899Y245922D01*
X339845Y246006D01*
X339795Y246092D01*
X339748Y246180D01*
X339704Y246270D01*
X339664Y246361D01*
X339628Y246454D01*
X339595Y246548D01*
X339566Y246644D01*
X339541Y246740D01*
X339520Y246837D01*
X339502Y246936D01*
X339489Y247034D01*
X339479Y247134D01*
X339473Y247233D01*
X339471Y247333D01*
X339473Y247466D01*
X339478Y247599D01*
X339488Y247732D01*
X339501Y247865D01*
X339518Y247997D01*
X339538Y248129D01*
X339562Y248260D01*
X339590Y248390D01*
X339621Y248520D01*
X339656Y248648D01*
X339695Y248776D01*
X339737Y248902D01*
X339783Y249027D01*
X339832Y249151D01*
X339884Y249274D01*
X339940Y249395D01*
X340000Y249514D01*
X340062Y249632D01*
X340128Y249747D01*
X340197Y249861D01*
X340270Y249973D01*
X340345Y250083D01*
X340424Y250191D01*
X344234Y246062D02*
X344182Y245978D01*
X344127Y245895D01*
X344068Y245815D01*
X344007Y245737D01*
X343943Y245662D01*
X343875Y245589D01*
X343805Y245518D01*
X343733Y245451D01*
X343658Y245386D01*
X343580Y245324D01*
X343500Y245265D01*
X343418Y245209D01*
X343334Y245157D01*
X343248Y245108D01*
X343160Y245062D01*
X343070Y245019D01*
X342979Y244980D01*
X342886Y244945D01*
X342792Y244913D01*
X342697Y244885D01*
X342601Y244860D01*
X342504Y244840D01*
X342406Y244822D01*
X342308Y244809D01*
X342209Y244800D01*
X342110Y244794D01*
X342011Y244792D01*
X346138Y249555D02*
X346190Y249639D01*
X346245Y249722D01*
X346304Y249802D01*
X346365Y249880D01*
X346429Y249955D01*
X346497Y250028D01*
X346567Y250099D01*
X346639Y250166D01*
X346714Y250231D01*
X346792Y250293D01*
X346872Y250352D01*
X346954Y250408D01*
X347038Y250460D01*
X347124Y250509D01*
X347212Y250555D01*
X347302Y250598D01*
X347393Y250637D01*
X347486Y250672D01*
X347580Y250704D01*
X347675Y250732D01*
X347771Y250757D01*
X347868Y250777D01*
X347966Y250795D01*
X348064Y250808D01*
X348163Y250817D01*
X348262Y250823D01*
X348361Y250825D01*
X346139Y249555D02*
X344234Y246063D01*
X339471Y255930D02*
X350901Y255930D01*
X350901Y261010D01*
X348361Y265430D02*
X339471Y267970D01*
X348361Y265430D02*
X348361Y271780D01*
X345821Y269875D02*
X350901Y269875D01*
M02*
